<?xml version="1.0" encoding="UTF-8"?>
<svg id="Layer_2" data-name="Layer 2" xmlns="http://www.w3.org/2000/svg" viewBox="0 0 915.3 1188.79">
	<defs>
		<style>
			.cls-1 {
				fill: #fff;
			}

			.cls-2 {
				fill: #532c88;
			}
		</style>
	</defs>
	<g id="Layer_1-2" data-name="Layer 1">
		<g>
			<path class="cls-1"
				d="m884.56,430.79L464.35,0l-165.55,173.03,6.29,358.73-127.46-236.79L29.15,440.79,0,931.31l463.15,257.48,452.15-254.48-30.74-503.52Zm-276.24.08l84.83,79.92h-86.2l1.38-79.92Z" />
			<polygon class="cls-2"
				points="848.66 471.81 737.49 676.07 753.76 842.49 605.16 919.16 493.98 1123.42 869.31 905.38 848.66 471.81" />
			<polygon class="cls-2"
				points="82.63 471.81 193.81 676.07 177.53 842.49 326.13 919.16 437.31 1123.42 61.98 905.38 82.63 471.81" />
			<path class="cls-2"
				d="m330.15,888.06L97.16,457.79l75.98-74,198.3,368.4-9.76-556.23,95.1-94.17-.18,1018.39-126.46-232.12Z" />
			<path class="cls-2"
				d="m474.15,1120.79l-.84-1019,360.84,356-43,80-224.35-220.65-5.65,235.65h220.41l-48,88-173.41-2-1,114,49-92,114.41,1c0,1.82-248.41,459-248.41,459Z" />
		</g>
	</g>
</svg>