<?xml version="1.0" encoding="UTF-8"?>
<svg id="Layer_2" data-name="Layer 2" xmlns="http://www.w3.org/2000/svg" viewBox="0 0 1885.76 685.79">
  <defs>
    <style>
      .cls-1 {
        fill: #fff;
      }

      .cls-2 {
        fill: #010101;
      }
    </style>
  </defs>
  <g id="Layer_1-2" data-name="Layer 1">
    <g>
      <path class="cls-1" d="m510.28,248.51L267.88,0l-95.5,99.82,3.63,206.94-73.53-136.6L16.81,254.28,0,537.26l267.18,148.53,260.84-146.8-17.73-290.47Zm-159.36.05l48.94,46.1h-49.73l.79-46.1Z"/>
      <polygon class="cls-2" points="489.58 272.18 425.44 390.01 434.83 486.01 349.11 530.25 284.97 648.08 501.49 522.3 489.58 272.18"/>
      <polygon class="cls-2" points="47.67 272.18 111.81 390.01 102.42 486.01 188.14 530.25 252.28 648.08 35.76 522.3 47.67 272.18"/>
      <path class="cls-2" d="m190.46,512.3L56.05,264.09l43.83-42.69,114.4,212.52-5.63-320.88,54.86-54.32-.11,587.49-72.95-133.91Z"/>
      <path class="cls-2" d="m273.53,646.56l-.48-587.84,208.16,205.37-24.81,46.15-129.43-127.29-3.26,135.94h127.15l-27.69,50.77-100.04-1.15-.58,65.76,28.27-53.07,66,.58c0,1.05-143.3,264.79-143.3,264.79Z"/>
    </g>
    <path class="cls-1" d="m1605.67,420.33c-.3-.43-.6-.85-.92-1.27l4.72-19.81v-2.94c0-11.03-7.07-20.69-18.02-24.6-2.41-.86-5.13-1.53-8.59-2.1-5.22-.87-11.46-1.29-19.06-1.29h-36.99c-3.82,0-7.4.27-10.77.79v-.92h-138.94v1.28c-4.18-.85-8.74-1.28-13.76-1.28h-88.52l.02.14h-100.92v2.42c-5.47-1.71-11.67-2.56-18.79-2.56h-88.52l.02.14h-17.06l-15.77,17.96-15.68-17.96h-152.77v129.97h152.84l15.62-18.04,15.7,18.04h89.7v-24.89c.68,0,1.37,0,2.06,0h13.87c7.04,0,13.23-.95,18.79-2.87v27.76h99.26c2.33,0,4.41-.02,6.28-.07v.07h67.95v-18.36l2.33,2.33c7.34,7.35,14.5,12.08,21.87,14.47,5.97,1.94,12.16,2.92,18.39,2.92,3.95,0,7.47-.27,10.79-.82,3.31-.55,5.74-1.12,7.86-1.82l4-1.33v2.61h67.91v-14.63c3.26,5.57,9.44,11.2,21.12,13.39,4.53.85,10.31,1.24,18.21,1.24h45.15c20.33,0,31.52-8.27,37.33-15.21,5.05-6.03,11.06-16.57,11.06-32.5v-2.18c0-11.25-2.61-20.7-7.74-28.08Zm-619.22,12.39l-2.3,2.42v-3.76h1.12l1.18,1.33Zm423.78,4.56c.58-1.67,1.07-3.36,1.45-5.07.07-.32.12-.64.19-.96h.64v6.03s-2.28,0-2.28,0Zm70.32,19.94v-19.63c1.4,3.44,3.11,6.38,4.94,8.88l-4.94,10.75Z"/>
    <path class="cls-1" d="m1866.35,324.75h-7.79v-3.55h19.72v-73.12h-159.14v1.9c-.43-.1-.88-.19-1.33-.29-5.85-1.2-13.36-1.79-22.97-1.79h-49.64c-13.67,0-25.4,3.13-35.01,9.29v-9.12h-82.64v21.28l-20.98-21.28h-70.06l5.02,40.16v11.8l-25.8-51.95h-75.17l-21.57,43.3v-43.3h-159.14v2.67c-1.35-.38-2.8-.72-4.39-1.05-5.85-1.2-13.36-1.79-22.96-1.79h-56.78c-13.67,0-25.4,3.13-35.01,9.29v-9.12h-82.64v21.28l-20.98-21.28h-200.36v.17h-40.13l-14.25,33.4-13.96-33.4h-91.53l68.9,149.79h72.77l18.21-38.23v38.23h121.22c5.81,0,10.43-.11,14.1-.35v.35h82.64v-22.22l22.3,22.22h63.72v-8.36c9.31,5.55,21.03,8.36,35.01,8.36h54.06c12.92,0,21.81-.44,27.96-1.4.74-.11,1.44-.23,2.12-.36v1.75h197.34l9.35-18.19h22.41l8.33,18.19h126.9v-22.22l22.3,22.22h63.72v-8.36c9.31,5.55,21.03,8.36,35.01,8.36h43.86c11.23,0,20.04-.55,26.93-1.69,1.09-.18,2.14-.37,3.15-.56v2.25h121.22c8.77,0,14.82-.26,19.01-.8,2.77-.36,4.98-.78,6.93-1.32,13.44-3.73,19.45-15.12,19.45-24.75v-5.65l-19.41-40.77Zm-567.08-3.55h4.86l-1.77,3.55h-3.09v-3.55Zm412.9,1.86l-.86.23c-1.05.12-3.99.39-11,.72-7.27.34-17.84.53-31.46.56v-3.2c10.79.03,19.89.22,27.08.56,10.35.5,13.81.84,14.81.96l1.43.17Z"/>
    <g>
      <path class="cls-2" d="m896.33,474.3v-79.97h84.59v13.06h-66.64v18.77h50.86v13.46h-50.86v21.62h67.18l5.44,11.56c0,.36-1.22.7-3.67,1.02-2.45.32-6.66.48-12.65.48h-74.26Z"/>
      <path class="cls-2" d="m990.98,474.3l5.17-8.16,30.19-31.82-35.36-39.98h21.76l26.25,30.06h1.5l26.38-30.06h21.76l-5.3,8.02-30.06,31.96,35.36,39.98h-21.76l-26.38-30.33h-1.5l-26.25,30.33h-21.76Z"/>
      <path class="cls-2" d="m1102.23,474.3v-69.09l-1.36-11.02h60.25c5.8,0,10.36.77,13.67,2.31,3.31,1.54,5.76,3.56,7.34,6.05,1.59,2.5,2.61,5.15,3.06,7.96.45,2.81.68,5.49.68,8.02v8.02c0,2.09-.32,4.42-.95,7-.63,2.58-1.81,5.08-3.54,7.48-1.72,2.4-4.22,4.4-7.48,5.98-3.26,1.59-7.53,2.38-12.78,2.38h-13.87c-5.71,0-11.04-.14-15.98-.41-4.94-.27-8.64-.5-11.08-.68v25.98h-17.95Zm17.95-37.94h36.99c4.08,0,6.89-1,8.43-2.99,1.54-1.99,2.31-4.4,2.31-7.21v-8.57c0-2.9-.77-5.35-2.31-7.34-1.54-1.99-4.31-2.99-8.3-2.99h-37.13v29.1Z"/>
      <path class="cls-2" d="m1204.91,474.3v-79.97h84.59v13.06h-66.64v18.77h50.86v13.46h-50.86v21.62h67.18l5.44,11.56c0,.36-1.22.7-3.67,1.02-2.45.32-6.66.48-12.65.48h-74.26Z"/>
      <path class="cls-2" d="m1395.99,475.66c-3.63,0-7.19-.57-10.68-1.7-3.49-1.13-7.46-3.92-11.9-8.36l-9.79-9.79c-3.99-4.08-8.36-7.07-13.12-8.98-4.76-1.9-10.72-2.86-17.88-2.86h-4.22v30.33h-17.95v-69.09l-1.36-11.02h60.25c5.8,0,10.36.77,13.67,2.31,3.31,1.54,5.76,3.56,7.34,6.05,1.59,2.5,2.61,5.15,3.06,7.96.45,2.81.68,5.49.68,8.02v2.58c0,2-.27,4.22-.82,6.66-.54,2.45-1.59,4.85-3.13,7.21-1.54,2.36-3.74,4.35-6.6,5.98-2.86,1.63-6.6,2.58-11.22,2.86,1.18.64,2.67,1.61,4.49,2.92,1.81,1.32,3.69,2.74,5.64,4.28,1.95,1.54,3.74,2.95,5.37,4.22,1.63,1.27,2.9,2.18,3.81,2.72,3.26,1.9,6.17,3.22,8.7,3.94,2.54.73,4.62,1.13,6.26,1.22,1.63.09,2.58.14,2.86.14l-2.72,11.02c-.82.27-2.18.57-4.08.88-1.9.32-4.13.48-6.66.48Zm-47.19-44.06c3.45,0,6.53-.07,9.25-.2,2.72-.14,5.17-.29,7.34-.48,3.99-.45,6.78-1.56,8.36-3.33,1.58-1.77,2.38-4.06,2.38-6.87v-3.13c0-2.9-.77-5.35-2.31-7.34-1.54-1.99-4.31-2.99-8.3-2.99h-37.13v23.66c3.99.27,7.66.45,11.02.54,3.35.09,6.48.14,9.38.14Z"/>
      <path class="cls-2" d="m1443.59,474.3l-.14-67.05h-35.36v-13.06h88.94v13.06h-35.5v67.05h-17.95Z"/>
      <path class="cls-2" d="m1525.87,474.3c-6.17,0-10.7-.27-13.6-.82-2.9-.54-4.35-1.18-4.35-1.9l5.44-11.83c2.08.36,7.28.7,15.57,1.02,8.3.32,19.7.48,34.2.48h2.58c3.9,0,6.66-.7,8.3-2.11,1.63-1.4,2.45-3.78,2.45-7.14v-2.72c0-3.17-.66-5.44-1.97-6.8-1.32-1.36-4.24-2.04-8.77-2.04h-31.55c-9.16,0-15.82-1.7-19.99-5.1-4.17-3.4-6.26-8.95-6.26-16.66v-2.18c0-3.99.75-7.66,2.24-11.02,1.5-3.35,4.06-6.05,7.68-8.09,3.62-2.04,8.61-3.06,14.96-3.06h36.99c6.17,0,11.15.32,14.96.95,3.81.64,5.71,1.32,5.71,2.04l-2.72,11.42c-2.36-.27-7.71-.57-16.05-.88-8.34-.32-19.54-.48-33.59-.48l-1.5-.14c-4.17,0-6.98.84-8.43,2.52-1.45,1.68-2.22,3.79-2.31,6.32v2.31c0,2.99.84,5.24,2.52,6.73,1.68,1.5,4.46,2.24,8.36,2.24h30.19c5.8,0,10.74.59,14.82,1.77,4.08,1.18,7.21,3.33,9.38,6.46,2.18,3.13,3.26,7.73,3.26,13.8v2.18c0,6.8-1.75,12.29-5.24,16.46-3.49,4.17-9.54,6.26-18.16,6.26h-45.15Z"/>
    </g>
    <g>
      <path class="cls-2" d="m667.76,374.04l-45.9-99.79h35.87l25.16,60.18,4.59,13.94h1.53l4.42-13.94,25.67-60.18h35.02l-2.72,10.2-42.67,89.59h-40.97Z"/>
      <path class="cls-2" d="m767.72,374.04v-99.96h109.14v23.12h-75.99v14.11h56.27v23.63h-56.27v15.81h73.27l10.2,21.42c0,.45-1.53.88-4.59,1.27-3.06.4-8.33.6-15.81.6h-96.22Z"/>
      <path class="cls-2" d="m903.04,374.04v-86.36l-1.7-13.6h31.28l47.94,48.62,6.63,7.48h1.87v-56.1h32.64v99.96h-28.39l-49.3-49.13-6.63-7.99h-1.7v57.12h-32.64Z"/>
      <path class="cls-2" d="m1081.71,374.04c-12.13,0-20.91-2.66-26.35-7.99-5.44-5.33-8.16-13.94-8.16-25.84v-31.11c0-12.24,3-21.17,9.01-26.77,6.01-5.61,14.51-8.42,25.5-8.42h56.78c7.82,0,13.79.42,17.93,1.27,4.14.85,6.21,1.73,6.21,2.63l-5.27,21.25c-2.83-.34-8.36-.71-16.57-1.1-8.22-.4-18.56-.59-31.03-.59h-15.81c-5.33,0-8.93.99-10.79,2.98-1.87,1.98-2.8,5.01-2.8,9.09v29.07c0,3.85.82,6.83,2.46,8.92,1.64,2.1,5.36,3.15,11.13,3.15h13.77c5.21,0,9.92-.03,14.11-.08,4.19-.06,7.88-.14,11.05-.25v-12.92l-6.8.17-22.27,1.7v-23.46h61.54v51.17l1.7,3.57c0,.91-2.38,1.73-7.14,2.46-4.76.74-12.81,1.1-24.14,1.1h-54.06Z"/>
      <path class="cls-2" d="m1190.84,374.04v-99.96h109.14v23.12h-75.99v14.11h56.27v23.63h-56.27v15.81h73.27l10.2,21.42c0,.45-1.53.88-4.59,1.27-3.06.4-8.33.6-15.81.6h-96.22Z"/>
      <path class="cls-2" d="m1312.22,374.04l49.81-99.96h44.2l49.64,99.96h-36.55l-8.33-18.19h-53.72l-9.35,18.19h-35.7Zm54.4-41.65h34.85l-16.49-36.21h-1.7l-16.66,36.21Z"/>
      <path class="cls-2" d="m1472.53,374.04v-86.36l-1.7-13.6h31.28l47.94,48.62,6.63,7.48h1.87v-56.1h32.64v99.96h-28.39l-49.3-49.13-6.63-7.99h-1.7v57.12h-32.64Z"/>
      <path class="cls-2" d="m1651.2,374.04c-12.13,0-20.91-2.66-26.35-7.99-5.44-5.33-8.16-13.94-8.16-25.84v-31.11c0-12.24,3-21.17,9.01-26.77,6.01-5.61,14.51-8.42,25.5-8.42h49.64c7.82,0,13.8.42,17.94,1.27,4.13.85,6.21,1.73,6.21,2.63l-5.27,21.25c-2.83-.34-8.36-.71-16.57-1.1-8.22-.4-18.56-.59-31.03-.59h-8.67c-5.33,0-8.93.99-10.79,2.98-1.87,1.98-2.8,5.01-2.8,9.09v29.07c0,3.85.82,6.83,2.46,8.92,1.64,2.1,5.36,3.15,11.13,3.15h6.97c16.21,0,28.56-.2,37.06-.6,8.5-.4,13.6-.82,15.3-1.27l10.37,18.36c0,.57-1.16,1.42-3.48,2.55-2.32,1.13-6.23,2.15-11.73,3.06-5.5.91-13.12,1.36-22.87,1.36h-43.86Z"/>
      <path class="cls-2" d="m1750.14,374.04v-99.96h109.14v23.12h-75.99v14.11h56.27v23.63h-56.27v15.81h73.27l10.2,21.42c0,.45-1.53.88-4.59,1.27-3.06.4-8.33.6-15.81.6h-96.22Z"/>
    </g>
  </g>
</svg>