<?xml version="1.0" encoding="UTF-8"?>
<svg id="Layer_2" data-name="Layer 2" xmlns="http://www.w3.org/2000/svg" viewBox="0 0 1308.92 1382.16">
  <defs>
    <style>
      .cls-1 {
        fill: #fff;
      }

      .cls-2 {
        fill: #010101;
      }
    </style>
  </defs>
  <g id="Layer_1-2" data-name="Layer 1">
    <path class="cls-2" d="m1076.08,430.79L655.87,0l-165.55,173.03,6.29,358.73-127.46-236.79-148.49,145.82-29.15,490.52,463.15,257.48,452.15-254.48-30.74-503.52Zm-276.24.08l84.83,79.92h-86.2l1.38-79.92Z"/>
    <polygon class="cls-1" points="1040.18 471.81 929 676.07 945.28 842.49 796.68 919.16 685.5 1123.42 1060.83 905.38 1040.18 471.81"/>
    <polygon class="cls-1" points="274.15 471.81 385.33 676.07 369.05 842.49 517.65 919.16 628.83 1123.42 253.5 905.38 274.15 471.81"/>
    <path class="cls-1" d="m521.67,888.06l-232.98-430.27,75.98-74,198.3,368.4-9.76-556.23,95.1-94.17-.18,1018.39-126.46-232.12Z"/>
    <path class="cls-1" d="m665.67,1120.79l-.84-1019,360.84,356-43,80-224.35-220.65-5.65,235.65h220.41l-48,88-173.41-2-1,114,49-92,114.41,1c0,1.82-248.41,459-248.41,459Z"/>
    <g>
      <g>
        <path class="cls-2" d="m313.49,1355.8v-79.97h84.59v13.06h-66.64v18.77h50.86v13.46h-50.86v21.62h67.18l5.44,11.56c0,.36-1.22.7-3.67,1.02-2.45.32-6.66.48-12.65.48h-74.26Z"/>
        <path class="cls-2" d="m387.74,1380.8h-99.26v-129.97h134.59v63.06h-15.78v3.86h7.18l14.58,30.97v5.59c0,9.59-5.94,20.92-19.22,24.61-1.8.5-3.79.88-6.25,1.2-3.62.47-8.52.68-15.85.68Z"/>
      </g>
      <g>
        <path class="cls-2" d="m408.14,1355.8l5.17-8.16,30.19-31.82-35.36-39.98h21.76l26.25,30.06h1.5l26.38-30.06h21.76l-5.3,8.02-30.06,31.96,35.36,39.98h-21.76l-26.38-30.33h-1.5l-26.25,30.33h-21.76Z"/>
        <polygon class="cls-2" points="561.27 1380.8 472.64 1380.8 456.94 1362.76 441.33 1380.8 362.72 1380.8 393.49 1332.2 409.6 1315.22 352.66 1250.83 441.26 1250.83 456.94 1268.79 472.71 1250.83 552.28 1250.83 520.16 1299.43 504.26 1316.33 561.27 1380.8"/>
      </g>
      <g>
        <path class="cls-2" d="m519.39,1355.8v-69.09l-1.36-11.02h60.25c5.8,0,10.36.77,13.67,2.31,3.31,1.54,5.76,3.56,7.34,6.05,1.59,2.5,2.61,5.15,3.06,7.96.45,2.81.68,5.49.68,8.02v8.02c0,2.09-.32,4.42-.95,7-.63,2.58-1.81,5.08-3.54,7.48-1.72,2.4-4.22,4.4-7.48,5.98-3.26,1.59-7.53,2.38-12.78,2.38h-13.87c-5.71,0-11.04-.14-15.98-.41-4.94-.27-8.64-.5-11.08-.68v25.98h-17.95Zm17.95-37.94h36.99c4.08,0,6.89-1,8.43-2.99,1.54-1.99,2.31-4.4,2.31-7.21v-8.57c0-2.9-.77-5.35-2.31-7.34-1.54-1.99-4.31-2.99-8.3-2.99h-37.13v29.1Z"/>
        <path class="cls-2" d="m562.34,1380.8h-67.95v-92.55l-4.64-37.55h88.53c9.57,0,17.49,1.52,24.21,4.64,7.7,3.59,13.71,8.73,17.89,15.29,3.42,5.38,5.65,11.22,6.65,17.38.67,4.14,1,8.18,1,12.02v8.02c0,4.08-.56,8.44-1.67,12.96-1.4,5.69-3.92,11.1-7.5,16.09-4.17,5.81-9.84,10.49-16.88,13.91-6.77,3.29-14.52,4.89-23.71,4.89h-13.87c-.69,0-1.38,0-2.06,0v24.89Z"/>
      </g>
      <g>
        <path class="cls-2" d="m622.07,1355.8v-79.97h84.59v13.06h-66.64v18.77h50.86v13.46h-50.86v21.62h67.18l5.44,11.56c0,.36-1.22.7-3.67,1.02-2.45.32-6.66.48-12.65.48h-74.26Z"/>
        <path class="cls-2" d="m696.32,1380.8h-99.26v-129.97h134.59v63.06h-15.78v3.86h7.18l14.58,30.97v5.59c0,9.59-5.94,20.92-19.22,24.61-1.8.5-3.79.88-6.25,1.2-3.62.47-8.52.68-15.85.68Z"/>
      </g>
      <g>
        <path class="cls-2" d="m813.15,1357.16c-3.63,0-7.19-.57-10.68-1.7-3.49-1.13-7.46-3.92-11.9-8.36l-9.79-9.79c-3.99-4.08-8.36-7.07-13.12-8.98-4.76-1.9-10.72-2.86-17.88-2.86h-4.22v30.33h-17.95v-69.09l-1.36-11.02h60.25c5.8,0,10.36.77,13.67,2.31,3.31,1.54,5.76,3.56,7.34,6.05,1.59,2.5,2.61,5.15,3.06,7.96.45,2.81.68,5.49.68,8.02v2.58c0,2-.27,4.22-.82,6.66-.54,2.45-1.59,4.85-3.13,7.21-1.54,2.36-3.74,4.35-6.6,5.98-2.86,1.63-6.6,2.58-11.22,2.86,1.18.64,2.67,1.61,4.49,2.92,1.81,1.32,3.69,2.74,5.64,4.28,1.95,1.54,3.74,2.95,5.37,4.22,1.63,1.27,2.9,2.18,3.81,2.72,3.26,1.9,6.17,3.22,8.7,3.94,2.54.73,4.62,1.13,6.26,1.22,1.63.09,2.58.14,2.86.14l-2.72,11.02c-.82.27-2.18.57-4.08.88-1.9.32-4.13.48-6.66.48Zm-47.19-44.06c3.45,0,6.53-.07,9.25-.2,2.72-.14,5.17-.29,7.34-.48,3.99-.45,6.78-1.56,8.36-3.33,1.58-1.77,2.38-4.06,2.38-6.87v-3.13c0-2.9-.77-5.35-2.31-7.34-1.54-1.99-4.31-2.99-8.3-2.99h-37.13v23.66c3.99.27,7.66.45,11.02.54,3.35.09,6.48.14,9.38.14Z"/>
        <path class="cls-2" d="m813.15,1382.16c-6.23,0-12.42-.98-18.4-2.92-7.37-2.39-14.52-7.12-21.86-14.47l-2.33-2.33v18.36h-67.95v-73.99l-2.37-1.28,2.37-.14v-17.14l-4.64-37.55h88.53c9.57,0,17.49,1.52,24.21,4.64,7.7,3.59,13.71,8.73,17.89,15.29,3.42,5.38,5.65,11.22,6.65,17.38.67,4.14,1,8.18,1,12.02v2.58c0,3.81-.47,7.87-1.41,12.09-.38,1.71-.86,3.41-1.45,5.07h25.15l-13.67,55.37-13.06,4.36c-2.12.71-4.55,1.27-7.87,1.83-3.31.55-6.84.82-10.79.82Z"/>
      </g>
      <g>
        <path class="cls-2" d="m860.75,1355.8l-.14-67.05h-35.36v-13.06h88.94v13.06h-35.5v67.05h-17.95Z"/>
        <polygon class="cls-2" points="903.7 1380.8 835.8 1380.8 835.66 1313.75 800.25 1313.75 800.25 1250.7 939.19 1250.7 939.19 1313.75 903.7 1313.75 903.7 1380.8"/>
      </g>
      <g>
        <path class="cls-2" d="m943.02,1355.8c-6.17,0-10.7-.27-13.6-.82-2.9-.54-4.35-1.18-4.35-1.9l5.44-11.83c2.08.36,7.28.7,15.57,1.02,8.3.32,19.7.48,34.2.48h2.58c3.9,0,6.66-.7,8.3-2.11,1.63-1.4,2.45-3.78,2.45-7.14v-2.72c0-3.17-.66-5.44-1.97-6.8-1.32-1.36-4.24-2.04-8.77-2.04h-31.55c-9.16,0-15.82-1.7-19.99-5.1-4.17-3.4-6.26-8.95-6.26-16.66v-2.18c0-3.99.75-7.66,2.24-11.02,1.5-3.35,4.06-6.05,7.68-8.09,3.62-2.04,8.61-3.06,14.96-3.06h36.99c6.17,0,11.15.32,14.96.95,3.81.64,5.71,1.32,5.71,2.04l-2.72,11.42c-2.36-.27-7.71-.57-16.05-.88-8.34-.32-19.54-.48-33.59-.48l-1.5-.14c-4.17,0-6.98.84-8.43,2.52-1.45,1.68-2.22,3.79-2.31,6.32v2.31c0,2.99.84,5.24,2.52,6.73,1.68,1.5,4.46,2.24,8.36,2.24h30.19c5.8,0,10.74.59,14.82,1.77,4.08,1.18,7.21,3.33,9.38,6.46,2.18,3.13,3.26,7.73,3.26,13.8v2.18c0,6.8-1.75,12.29-5.24,16.46-3.49,4.17-9.54,6.26-18.16,6.26h-45.15Z"/>
        <path class="cls-2" d="m988.18,1380.8h-45.15c-7.9,0-13.68-.4-18.21-1.24-23.55-4.41-24.74-22.83-24.74-26.48v-5.47l8.57-18.64c-4.69-6.38-8.57-15.64-8.57-28.79v-2.18c0-7.5,1.48-14.63,4.41-21.2,3.68-8.24,9.99-15.05,18.26-19.7,7.5-4.22,16.4-6.27,27.22-6.27h36.99c7.61,0,13.84.42,19.06,1.29,3.45.58,6.18,1.24,8.59,2.1,10.95,3.91,18.02,13.56,18.02,24.6v2.93l-4.72,19.81c.31.42.62.84.92,1.27,5.14,7.38,7.74,16.83,7.74,28.08v2.18c0,15.94-6.02,26.47-11.06,32.5-5.81,6.94-17,15.21-37.33,15.21Z"/>
      </g>
    </g>
    <g>
      <g>
        <path class="cls-2" d="m84.92,1255.54l-45.9-99.79h35.87l25.16,60.18,4.59,13.94h1.53l4.42-13.94,25.67-60.18h35.02l-2.72,10.2-42.67,89.59h-40.97Z"/>
        <polygon class="cls-2" points="141.67 1280.55 68.9 1280.55 0 1130.76 91.53 1130.76 105.49 1164.15 119.74 1130.76 203.82 1130.76 192.12 1174.63 141.67 1280.55"/>
      </g>
      <g>
        <path class="cls-2" d="m184.88,1255.54v-99.96h109.14v23.12h-75.99v14.11h56.27v23.63h-56.27v15.81h73.27l10.2,21.42c0,.45-1.53.88-4.59,1.27-3.06.4-8.33.6-15.81.6h-96.22Z"/>
        <path class="cls-2" d="m281.1,1280.55h-121.22v-149.96h159.14v73.12h-19.72v3.55h7.79l19.41,40.77v5.65c0,9.63-6.02,21.01-19.46,24.75-1.95.54-4.16.96-6.93,1.32-4.19.55-10.24.8-19.01.8Z"/>
      </g>
      <g>
        <path class="cls-2" d="m320.19,1255.54v-86.36l-1.7-13.6h31.28l47.94,48.62,6.63,7.48h1.87v-56.1h32.64v99.96h-28.39l-49.3-49.13-6.63-7.99h-1.7v57.12h-32.64Z"/>
        <polygon class="cls-2" points="463.85 1280.55 400.14 1280.55 377.84 1258.32 377.84 1280.55 295.19 1280.55 295.19 1170.74 290.18 1130.59 360.23 1130.59 381.22 1151.87 381.22 1130.59 463.85 1130.59 463.85 1280.55"/>
      </g>
      <g>
        <path class="cls-2" d="m498.86,1255.54c-12.13,0-20.91-2.66-26.35-7.99-5.44-5.33-8.16-13.94-8.16-25.84v-31.11c0-12.24,3-21.17,9.01-26.77,6.01-5.61,14.51-8.42,25.5-8.42h56.78c7.82,0,13.79.42,17.93,1.27,4.14.85,6.21,1.73,6.21,2.63l-5.27,21.25c-2.83-.34-8.36-.71-16.57-1.1-8.22-.4-18.56-.59-31.03-.59h-15.81c-5.33,0-8.93.99-10.79,2.98-1.87,1.98-2.8,5.01-2.8,9.09v29.07c0,3.85.82,6.83,2.46,8.92,1.64,2.1,5.36,3.15,11.13,3.15h13.77c5.21,0,9.92-.03,14.11-.08,4.19-.06,7.88-.14,11.05-.25v-12.92l-6.8.17-22.27,1.7v-23.46h61.54v51.17l1.7,3.57c0,.91-2.38,1.73-7.14,2.46-4.76.74-12.81,1.1-24.14,1.1h-54.06Z"/>
        <path class="cls-2" d="m552.93,1280.55h-54.06c-18.84,0-33.59-5.09-43.84-15.13-10.39-10.18-15.67-24.88-15.67-43.7v-31.11c0-19.39,5.7-34.55,16.95-45.05,10.75-10.05,25.08-15.14,42.56-15.14h56.78c9.6,0,17.11.58,22.96,1.79,3.79.78,6.77,1.66,9.4,2.78,12.37,5.25,16.78,16.02,16.78,24.35v3.05l-2.44,9.86h5.17v70.52l1.7,3.57v5.65c0,8.94-4.89,20.19-18.63,24.93-2.67.92-5.75,1.63-9.7,2.24-6.15.95-15.04,1.4-27.96,1.4Z"/>
      </g>
      <g>
        <path class="cls-2" d="m608,1255.54v-99.96h109.14v23.12h-75.99v14.11h56.27v23.63h-56.27v15.81h73.27l10.2,21.42c0,.45-1.53.88-4.59,1.27-3.06.4-8.33.6-15.81.6h-96.22Z"/>
        <path class="cls-2" d="m704.22,1280.55h-121.22v-149.96h159.14v73.12h-19.72v3.55h7.79l19.41,40.77v5.65c0,9.63-6.02,21.01-19.46,24.75-1.95.54-4.16.96-6.93,1.32-4.19.55-10.24.8-19.01.8Z"/>
      </g>
      <g>
        <path class="cls-2" d="m729.38,1255.54l49.81-99.96h44.2l49.64,99.96h-36.55l-8.33-18.19h-53.72l-9.35,18.19h-35.7Zm54.4-41.65h34.85l-16.49-36.21h-1.7l-16.66,36.21Z"/>
        <polygon class="cls-2" points="913.36 1280.55 820.43 1280.55 812.1 1262.35 789.69 1262.35 780.34 1280.55 688.99 1280.55 763.72 1130.59 838.89 1130.59 913.36 1280.55"/>
      </g>
      <g>
        <path class="cls-2" d="m889.69,1255.54v-86.36l-1.7-13.6h31.28l47.94,48.62,6.63,7.48h1.87v-56.1h32.64v99.96h-28.39l-49.3-49.13-6.63-7.99h-1.7v57.12h-32.64Z"/>
        <polygon class="cls-2" points="1033.35 1280.55 969.63 1280.55 947.33 1258.32 947.33 1280.55 864.69 1280.55 864.69 1170.74 859.67 1130.59 929.73 1130.59 950.71 1151.87 950.71 1130.59 1033.35 1130.59 1033.35 1280.55"/>
      </g>
      <g>
        <path class="cls-2" d="m1068.36,1255.54c-12.13,0-20.91-2.66-26.35-7.99-5.44-5.33-8.16-13.94-8.16-25.84v-31.11c0-12.24,3-21.17,9.01-26.77,6.01-5.61,14.51-8.42,25.5-8.42h49.64c7.82,0,13.8.42,17.94,1.27,4.13.85,6.21,1.73,6.21,2.63l-5.27,21.25c-2.83-.34-8.36-.71-16.57-1.1-8.22-.4-18.56-.59-31.03-.59h-8.67c-5.33,0-8.93.99-10.79,2.98-1.87,1.98-2.8,5.01-2.8,9.09v29.07c0,3.85.82,6.83,2.46,8.92,1.64,2.1,5.36,3.15,11.13,3.15h6.97c16.21,0,28.56-.2,37.06-.6,8.5-.4,13.6-.82,15.3-1.27l10.37,18.36c0,.57-1.16,1.42-3.48,2.55-2.32,1.13-6.23,2.15-11.73,3.06-5.5.91-13.12,1.36-22.87,1.36h-43.86Z"/>
        <path class="cls-2" d="m1112.22,1280.55h-43.86c-18.84,0-33.59-5.09-43.84-15.13-10.39-10.18-15.67-24.88-15.67-43.7v-31.11c0-19.39,5.7-34.55,16.95-45.05,10.75-10.05,25.08-15.14,42.56-15.14h49.64c9.6,0,17.11.58,22.96,1.79,3.79.78,6.77,1.66,9.4,2.77,12.37,5.25,16.78,16.02,16.78,24.35v3.05l-11.23,45.29,19.39,34.34v6.57c0,7.52-3.04,17.96-17.53,25.02-4.68,2.28-10.42,3.9-18.62,5.25-6.89,1.14-15.7,1.69-26.93,1.69Zm-20.22-76.67v3.2c13.62-.03,24.18-.22,31.46-.56,7.01-.33,9.95-.6,11-.72l.87-.23-1.43-.17c-1-.12-4.45-.45-14.81-.96-7.19-.35-16.3-.54-27.08-.56Zm42.93,1.86h0,0Z"/>
      </g>
      <g>
        <path class="cls-2" d="m1167.3,1255.54v-99.96h109.14v23.12h-75.99v14.11h56.27v23.63h-56.27v15.81h73.27l10.2,21.42c0,.45-1.53.88-4.59,1.27-3.06.4-8.33.6-15.81.6h-96.22Z"/>
        <path class="cls-2" d="m1263.52,1280.55h-121.22v-149.96h159.14v73.12h-19.72v3.55h7.79l19.41,40.77v5.65c0,9.63-6.02,21.01-19.46,24.75-1.95.54-4.16.96-6.93,1.32-4.19.55-10.24.8-19.01.8Z"/>
      </g>
    </g>
    <g>
      <path class="cls-1" d="m315.49,1362.8v-79.97h84.59v13.06h-66.64v18.77h50.86v13.46h-50.86v21.62h67.18l5.44,11.56c0,.36-1.22.7-3.67,1.02-2.45.32-6.66.48-12.65.48h-74.26Z"/>
      <path class="cls-1" d="m410.14,1362.8l5.17-8.16,30.19-31.82-35.36-39.98h21.76l26.25,30.06h1.5l26.38-30.06h21.76l-5.3,8.02-30.06,31.96,35.36,39.98h-21.76l-26.38-30.33h-1.5l-26.25,30.33h-21.76Z"/>
      <path class="cls-1" d="m521.39,1362.8v-69.09l-1.36-11.02h60.25c5.8,0,10.36.77,13.67,2.31,3.31,1.54,5.76,3.56,7.34,6.05,1.59,2.5,2.61,5.15,3.06,7.96.45,2.81.68,5.49.68,8.02v8.02c0,2.09-.32,4.42-.95,7-.63,2.58-1.81,5.08-3.54,7.48-1.72,2.4-4.22,4.4-7.48,5.98-3.26,1.59-7.53,2.38-12.78,2.38h-13.87c-5.71,0-11.04-.14-15.98-.41-4.94-.27-8.64-.5-11.08-.68v25.98h-17.95Zm17.95-37.94h36.99c4.08,0,6.89-1,8.43-2.99,1.54-1.99,2.31-4.4,2.31-7.21v-8.57c0-2.9-.77-5.35-2.31-7.34-1.54-1.99-4.31-2.99-8.3-2.99h-37.13v29.1Z"/>
      <path class="cls-1" d="m624.07,1362.8v-79.97h84.59v13.06h-66.64v18.77h50.86v13.46h-50.86v21.62h67.18l5.44,11.56c0,.36-1.22.7-3.67,1.02-2.45.32-6.66.48-12.65.48h-74.26Z"/>
      <path class="cls-1" d="m815.15,1364.16c-3.63,0-7.19-.57-10.68-1.7-3.49-1.13-7.46-3.92-11.9-8.36l-9.79-9.79c-3.99-4.08-8.36-7.07-13.12-8.98-4.76-1.9-10.72-2.86-17.88-2.86h-4.22v30.33h-17.95v-69.09l-1.36-11.02h60.25c5.8,0,10.36.77,13.67,2.31,3.31,1.54,5.76,3.56,7.34,6.05,1.59,2.5,2.61,5.15,3.06,7.96.45,2.81.68,5.49.68,8.02v2.58c0,2-.27,4.22-.82,6.66-.54,2.45-1.59,4.85-3.13,7.21-1.54,2.36-3.74,4.35-6.6,5.98-2.86,1.63-6.6,2.58-11.22,2.86,1.18.64,2.67,1.61,4.49,2.92,1.81,1.32,3.69,2.74,5.64,4.28,1.95,1.54,3.74,2.95,5.37,4.22,1.63,1.27,2.9,2.18,3.81,2.72,3.26,1.9,6.17,3.22,8.7,3.94,2.54.73,4.62,1.13,6.26,1.22,1.63.09,2.58.14,2.86.14l-2.72,11.02c-.82.27-2.18.57-4.08.88-1.9.32-4.13.48-6.66.48Zm-47.19-44.06c3.45,0,6.53-.07,9.25-.2,2.72-.14,5.17-.29,7.34-.48,3.99-.45,6.78-1.56,8.36-3.33,1.58-1.77,2.38-4.06,2.38-6.87v-3.13c0-2.9-.77-5.35-2.31-7.34-1.54-1.99-4.31-2.99-8.3-2.99h-37.13v23.66c3.99.27,7.66.45,11.02.54,3.35.09,6.48.14,9.38.14Z"/>
      <path class="cls-1" d="m862.75,1362.8l-.14-67.05h-35.36v-13.06h88.94v13.06h-35.5v67.05h-17.95Z"/>
      <path class="cls-1" d="m945.02,1362.8c-6.17,0-10.7-.27-13.6-.82-2.9-.54-4.35-1.18-4.35-1.9l5.44-11.83c2.08.36,7.28.7,15.57,1.02,8.3.32,19.7.48,34.2.48h2.58c3.9,0,6.66-.7,8.3-2.11,1.63-1.4,2.45-3.78,2.45-7.14v-2.72c0-3.17-.66-5.44-1.97-6.8-1.32-1.36-4.24-2.04-8.77-2.04h-31.55c-9.16,0-15.82-1.7-19.99-5.1-4.17-3.4-6.26-8.95-6.26-16.66v-2.18c0-3.99.75-7.66,2.24-11.02,1.5-3.35,4.06-6.05,7.68-8.09,3.62-2.04,8.61-3.06,14.96-3.06h36.99c6.17,0,11.15.32,14.96.95,3.81.64,5.71,1.32,5.71,2.04l-2.72,11.42c-2.36-.27-7.71-.57-16.05-.88-8.34-.32-19.54-.48-33.59-.48l-1.5-.14c-4.17,0-6.98.84-8.43,2.52-1.45,1.68-2.22,3.79-2.31,6.32v2.31c0,2.99.84,5.24,2.52,6.73,1.68,1.5,4.46,2.24,8.36,2.24h30.19c5.8,0,10.74.59,14.82,1.77,4.08,1.18,7.21,3.33,9.38,6.46,2.18,3.13,3.26,7.73,3.26,13.8v2.18c0,6.8-1.75,12.29-5.24,16.46-3.49,4.17-9.54,6.26-18.16,6.26h-45.15Z"/>
    </g>
    <g>
      <path class="cls-1" d="m84.92,1255.54l-45.9-99.79h35.87l25.16,60.18,4.59,13.94h1.53l4.42-13.94,25.67-60.18h35.02l-2.72,10.2-42.67,89.59h-40.97Z"/>
      <path class="cls-1" d="m184.88,1255.54v-99.96h109.14v23.12h-75.99v14.11h56.27v23.63h-56.27v15.81h73.27l10.2,21.42c0,.45-1.53.88-4.59,1.27-3.06.4-8.33.6-15.81.6h-96.22Z"/>
      <path class="cls-1" d="m320.19,1255.54v-86.36l-1.7-13.6h31.28l47.94,48.62,6.63,7.48h1.87v-56.1h32.64v99.96h-28.39l-49.3-49.13-6.63-7.99h-1.7v57.12h-32.64Z"/>
      <path class="cls-1" d="m498.86,1255.54c-12.13,0-20.91-2.66-26.35-7.99-5.44-5.33-8.16-13.94-8.16-25.84v-31.11c0-12.24,3-21.17,9.01-26.77,6.01-5.61,14.51-8.42,25.5-8.42h56.78c7.82,0,13.79.42,17.93,1.27,4.14.85,6.21,1.73,6.21,2.63l-5.27,21.25c-2.83-.34-8.36-.71-16.57-1.1-8.22-.4-18.56-.59-31.03-.59h-15.81c-5.33,0-8.93.99-10.79,2.98-1.87,1.98-2.8,5.01-2.8,9.09v29.07c0,3.85.82,6.83,2.46,8.92,1.64,2.1,5.36,3.15,11.13,3.15h13.77c5.21,0,9.92-.03,14.11-.08,4.19-.06,7.88-.14,11.05-.25v-12.92l-6.8.17-22.27,1.7v-23.46h61.54v51.17l1.7,3.57c0,.91-2.38,1.73-7.14,2.46-4.76.74-12.81,1.1-24.14,1.1h-54.06Z"/>
      <path class="cls-1" d="m608,1255.54v-99.96h109.14v23.12h-75.99v14.11h56.27v23.63h-56.27v15.81h73.27l10.2,21.42c0,.45-1.53.88-4.59,1.27-3.06.4-8.33.6-15.81.6h-96.22Z"/>
      <path class="cls-1" d="m729.38,1255.54l49.81-99.96h44.2l49.64,99.96h-36.55l-8.33-18.19h-53.72l-9.35,18.19h-35.7Zm54.4-41.65h34.85l-16.49-36.21h-1.7l-16.66,36.21Z"/>
      <path class="cls-1" d="m889.69,1255.54v-86.36l-1.7-13.6h31.28l47.94,48.62,6.63,7.48h1.87v-56.1h32.64v99.96h-28.39l-49.3-49.13-6.63-7.99h-1.7v57.12h-32.64Z"/>
      <path class="cls-1" d="m1068.36,1255.54c-12.13,0-20.91-2.66-26.35-7.99-5.44-5.33-8.16-13.94-8.16-25.84v-31.11c0-12.24,3-21.17,9.01-26.77,6.01-5.61,14.51-8.42,25.5-8.42h49.64c7.82,0,13.8.42,17.94,1.27,4.13.85,6.21,1.73,6.21,2.63l-5.27,21.25c-2.83-.34-8.36-.71-16.57-1.1-8.22-.4-18.56-.59-31.03-.59h-8.67c-5.33,0-8.93.99-10.79,2.98-1.87,1.98-2.8,5.01-2.8,9.09v29.07c0,3.85.82,6.83,2.46,8.92,1.64,2.1,5.36,3.15,11.13,3.15h6.97c16.21,0,28.56-.2,37.06-.6,8.5-.4,13.6-.82,15.3-1.27l10.37,18.36c0,.57-1.16,1.42-3.48,2.55-2.32,1.13-6.23,2.15-11.73,3.06-5.5.91-13.12,1.36-22.87,1.36h-43.86Z"/>
      <path class="cls-1" d="m1167.3,1255.54v-99.96h109.14v23.12h-75.99v14.11h56.27v23.63h-56.27v15.81h73.27l10.2,21.42c0,.45-1.53.88-4.59,1.27-3.06.4-8.33.6-15.81.6h-96.22Z"/>
    </g>
  </g>
</svg>