<?xml version="1.0" encoding="UTF-8"?>
<svg id="Layer_2" data-name="Layer 2" xmlns="http://www.w3.org/2000/svg" viewBox="0 0 1600 588">
  <defs>
    <style>
      .cls-1 {
        fill: #fff;
      }
    </style>
  </defs>
  <g id="Layer_1-2" data-name="Layer 1">
    <g>
      <path d="m751,0c.97,15.22,1.96,30.43,2.92,45.65.39,6.13.77,12.26,1.06,18.39.7,15.08,1.24,30.17,2.05,45.24,1.24,23.17,2.66,46.33,4,69.49.99,17.05,1.95,34.1,3,51.14.35,5.77.91,11.52,1.4,17.7h-85.92c-.6-33.48-1.21-67.1-1.82-100.71l-1.11-.2c-7.68,33.62-15.35,67.24-23.07,101.06h-74.44c-7.71-33.7-15.49-67.73-23.27-101.76-.22.02-.45.05-.67.07-.76,33.79-1.53,67.59-2.31,101.91-1.85,0-3.47,0-5.08,0-55.15,0-110.3-.06-165.45.11-4.3.01-6.09-1.3-7.08-5.35-2.33-9.5-5.06-18.9-7.75-28.76-3.7,0-7.34,0-10.98,0-15.5,0-30.99.07-46.49-.06-2.73-.02-4.26.63-4.95,3.4-2.27,9.04-4.74,18.03-7.01,27.07-.59,2.36-1.38,3.66-4.22,3.65-28.99-.1-57.97-.06-87.59-.06,3.5-10.14,6.85-19.96,10.26-29.75,25.05-71.94,50.12-143.87,75.16-215.81.26-.76.25-1.62.37-2.43,31,0,62,0,93,0,4.87,14.08,9.73,28.16,14.61,42.23,18.95,54.57,37.9,109.13,56.86,163.7,3.57,10.27,7.18,20.52,10.77,30.78,1.39-14.23,2.07-28.29,2.78-42.35.32-6.45.63-12.91,1.03-19.36.96-15.53,2-31.06,2.94-46.6.44-7.29.63-14.59,1.1-21.88,1.25-19.33,2.73-38.65,3.87-57.98.88-14.9,1.37-29.82,2.1-44.73.06-1.28.62-2.55.94-3.82,35.67,0,71.33,0,107,0,.2.27.5.51.57.81,7.5,32.5,14.97,65,22.48,97.49,1.14,4.95,2.5,9.86,3.75,14.78,3.46-11.37,6.08-22.53,8.68-33.69C630.66,52.93,636.83,26.47,643,0c36,0,72,0,108,0Zm-260.98,9.24c-.7,9.05-1.45,17.65-2,26.25-1.07,16.87-2.04,33.75-3.01,50.63-1.02,17.71-2.08,35.43-2.99,53.15-.77,14.92-1.33,29.86-2.04,44.79-.3,6.29-.71,12.58-1.12,18.87-.77,11.85-1.57,23.7-2.38,35.84h67.2c.46-4.63,1.21-9.06,1.28-13.5.44-26.81.68-53.62,1.07-80.42.28-18.98.63-37.96,1.07-56.93.1-4.2.72-8.39,1.1-12.59,5.27,20.87,10.08,41.73,14.82,62.61,7.39,32.59,14.73,65.2,22.05,97.81.64,2.87,2.36,3.35,5.01,3.32,13.33-.12,26.66-.06,40-.06,5.47,0,10.94,0,16.44,0,12.67-55.58,25.24-110.73,37.81-165.89.55.03,1.09.07,1.64.1,0,12.64-.11,25.27.02,37.91.27,24.65.63,49.3,1.03,73.95.28,17.32.67,34.64,1.03,51.95.01.61.31,1.21.46,1.73h67.5c0-1.53.08-2.83-.01-4.11-.94-13.73-2-27.45-2.85-41.19-.82-13.24-1.47-26.49-2.13-39.74-.42-8.45-.56-16.91-1.09-25.35-1.22-19.36-2.73-38.71-3.88-58.07-.88-14.91-1.32-29.84-2.09-44.75-.28-5.4-.97-10.78-1.46-16.13-.41-.14-.72-.33-1.02-.33-29.5-.03-58.99-.1-88.49.07-1.3,0-3.45,1.91-3.77,3.26-7.52,31.73-14.82,63.51-22.23,95.27-3.43,14.69-6.99,29.35-10.49,44.02-.3.01-.61.02-.91.03-11.01-47.44-22.02-94.87-33.08-142.5h-92.48Zm-191.44-.24c-26.69,76.75-53.25,153.11-79.99,229.99,23.6,0,46.42.05,69.23-.14,1.09,0,2.78-1.89,3.16-3.2,2.51-8.65,4.72-17.38,7.09-26.07.62-2.28,1.43-3.89,4.61-3.86,22.66.19,45.33.15,68,.07,2.86-.01,3.88,1,4.6,3.81,2.49,9.79,5.42,19.47,8.19,29.24h74.88c-.39-1.33-.68-2.43-1.04-3.49-8.45-24.46-16.89-48.91-25.36-73.36-17.32-49.96-34.65-99.92-52.12-149.82-.47-1.35-2.62-3.02-4-3.03-25.66-.18-51.32-.13-77.24-.13Z"/>
      <path d="m515,588c-4.52-.66-9.02-1.46-13.55-1.97-25.68-2.89-49.58-10.76-69.77-27.22-18.27-14.89-30.23-34.19-35.66-57.3-3.34-14.17-5.02-28.54-5.02-43.11.02-57.32,0-114.64,0-171.96v-6.16h106c0,1.8,0,3.71,0,5.62,0,59.32.11,118.64-.06,177.96-.05,19.01,14.65,31.65,31.08,31.34,10.18-.19,19.81-1.34,26.48-9.53,3.46-4.25,5.74-9.85,7.23-15.21,1.35-4.85,1.22-10.21,1.23-15.34.07-56.16.05-112.31.05-168.47v-6.3h105.99c0,1.8,0,3.57,0,5.34,0,58.49.35,116.98-.17,175.46-.2,22.66-3.68,44.98-14.53,65.5-13.93,26.36-35.89,42.94-63.71,52.28-13.74,4.61-27.87,7.57-42.43,8.1-1.06.04-2.1.62-3.15.95-10,0-20,0-30,0Zm-115.01-299.61c0,2.42,0,4.38,0,6.35,0,54.49-.25,108.98.19,163.47.1,12.96,1.47,26.1,4.05,38.8,4.89,24.07,17.25,43.81,37.5,58.36,22.34,16.05,47.96,21.88,74.64,23.47,20,1.19,40.01.18,59.67-4.77,27.09-6.82,50.15-19.58,65.84-43.5,13.1-19.97,17.71-42.6,17.94-65.84.57-56.98.19-113.98.19-170.97,0-1.75,0-3.5,0-5.13h-88.84c0,2.37,0,4.34,0,6.32-.05,57.15.06,114.31-.39,171.46-.05,6.46-2.03,13.6-5.25,19.19-7.66,13.25-20.22,18.29-35.36,18.5-25.03.36-42.22-16.14-42.18-42.36.1-55.82.03-111.65.03-167.47,0-1.91,0-3.82,0-5.88h-88.01Z"/>
      <path d="m1156,588c-6.13-1-12.29-1.86-18.39-3.03-25.67-4.92-49.25-14.57-69.97-30.81-29.47-23.1-46.52-53.72-52.34-90.14-5.88-36.82-3.22-73.12,13.79-107.17,17.36-34.77,45.19-57.99,81.58-70.58,12.91-4.47,26.61-7.35,40.19-8.98,14.08-1.68,28.52-2.07,42.67-1.06,27.8,2,54.42,8.78,78.01,24.61,6.91,4.64,6.99,4.68,4.47,12.74-8.44,27.03-16.94,54.04-25.44,81.05-.09.29-.42.51-.62.74-6.9-4.57-13.64-9.4-20.72-13.66-14.19-8.54-29.51-13.76-46.2-14.11-17.94-.37-34.41,4.21-47.7,16.76-9.53,8.99-14.37,20.82-16.14,33.58-1.76,12.67-1.23,25.37,3.42,37.59,7.68,20.17,22.96,31.67,43.49,35.24,27.66,4.81,53.45-.86,76.13-18.1,3.95-3,7.35-6.71,11.56-10.61,2.56,7.02,5.05,13.8,7.5,20.58,7.42,20.48,14.78,40.98,22.29,61.43.96,2.6.78,4.22-1.31,6.33-17.95,18.13-40.08,28.16-64.59,33.54-7.49,1.64-15.1,2.72-22.66,4.05-13,0-26,0-39,0Zm94.16-110.05c-26.67,20.18-56.02,27.38-88.31,20.93-14.24-2.84-26.73-9.81-36.22-20.98-16.26-19.16-18.72-42.01-14.19-65.38,6.39-32.99,29.48-49.8,60.36-53.33,17.68-2.02,34.9,1.34,50.98,9.25,7.74,3.81,15.23,8.15,22.89,12.28,7.09-22.34,14.13-44.79,21.42-67.16,1.17-3.6.56-5.6-2.87-6.98-1.19-.48-2.15-1.48-3.29-2.12-24.15-13.77-50.65-18.91-77.95-20.32-18.53-.95-36.92,1.15-54.94,5.85-33.15,8.65-60.62,25.75-80.6,54.05-19.26,27.29-26.3,58.2-26.15,90.95.05,10.63,1.75,21.38,3.81,31.85,5.87,29.76,19.72,55.1,42.58,75.48,25.53,22.75,55.96,33.49,89.27,36.43,13.93,1.23,28.18.3,42.18-.87,27.21-2.28,51.7-11.89,72.89-29.43,2.25-1.87,2.59-3.52,1.58-6.24-4.42-11.82-8.57-23.74-12.88-35.6-3.45-9.5-7-18.97-10.57-28.65Z"/>
      <path d="m894,0c3.1.33,6.19.85,9.3.97,16.18.61,32.17,2.52,47.12,9.07,19.01,8.34,31.74,22.48,35.48,43.2,4.73,26.21-4.17,47.56-25.35,64.08,12.67,5.96,23.19,13.96,30.4,25.98,8.24,13.74,9.2,28.54,7.41,43.93-1.71,14.62-7.73,27.2-18.4,37.19-12.48,11.68-27.89,17.99-44.5,20.38-14.01,2.02-28.28,2.89-42.45,3.07-34.31.42-68.63.14-102.95.14-1.81,0-3.61,0-6.06,0V0C820.67,0,857.33,0,894,0Zm41.89,119.21c2.25-1.09,3.37-1.64,4.49-2.17,5.03-2.36,10.56-4.01,15.01-7.18,15.78-11.26,23.18-26.78,22.68-46.31-.5-19.88-9.87-34.2-26.89-43.4-17.62-9.52-37.31-10.56-56.69-10.97-31.98-.67-63.99-.19-95.99-.19-1.75,0-3.5,0-5.24,0v230.01c2.06,0,3.85,0,5.64,0,36.16,0,72.34.41,108.49-.24,12.22-.22,24.61-2.21,36.53-5.04,15.05-3.56,28.2-11.17,37.18-24.4,8.16-12.02,9.83-25.53,8.97-39.71-.95-15.62-8.33-27.43-20.4-36.81-9.6-7.46-21.06-10.28-33.78-13.61Z"/>
      <path d="m111,0c3.08.33,6.16.84,9.26.97,17.71.77,35.22,2.87,51.13,11.22,18.77,9.86,29.57,25.46,31.71,46.91,2.09,21.02-4.95,38.44-19.78,53.05-.93.92-2.08,1.62-3.09,2.47-1.01.84-1.96,1.75-3.22,2.87,12.17,5.54,22.37,12.99,29.34,24.27,7.83,12.67,10.52,26.23,8.94,41.15-1.24,11.75-4.25,22.59-10.98,32.2-9.81,14.01-23.91,21.99-39.92,26.8-13.97,4.2-28.33,6.1-42.95,6.09-40.48-.03-80.96,0-121.44,0V0C37,0,74,0,111,0ZM9.24,239.01c2.14,0,3.94,0,5.74,0,35.65,0,71.31.32,106.95-.19,11.62-.17,23.35-1.76,34.76-4.03,13.74-2.73,26.56-8.52,35.99-19.21,13.61-15.43,17.11-33.95,12.72-53.68-4.66-20.9-19.29-32.53-38.85-38.85-4.42-1.43-8.94-2.55-14.11-4,5.99-2.62,11.43-4.24,16.06-7.15,20.11-12.68,28.71-30.99,25.51-54.65-2.56-18.88-13.62-31.47-30.38-39.06-16.71-7.56-34.87-8.71-52.82-9.03-31.98-.57-63.97-.16-95.96-.16-1.78,0-3.57,0-5.6,0v230.01Z"/>
      <path d="m1600,140c-1.82,7.74-3.03,15.69-5.57,23.18-15.5,45.7-47.44,73.7-94.28,83.39-29.48,6.09-57.8.34-83.08-16.69-21.98-14.81-34.3-36.46-40.93-61.54-4.46-16.88-6.25-34.24-5-51.61,2.08-28.81,11.81-54.69,31.2-76.71,16.22-18.41,35.87-30.72,59.85-36.1,31.76-7.13,60.91-.83,87.07,18.03,26.91,19.4,42.89,45.99,48.81,78.64.51,2.83,1.28,5.61,1.93,8.41,0,10.33,0,20.67,0,31Zm-220.04-12.31c-.4,13.96,1.72,29.15,6.17,43.91,7.83,25.96,22.9,46.31,47.98,57.93,20.16,9.34,41.25,12.84,63.43,8.52,36.86-7.18,64.1-27.26,81.47-60.43,13.25-25.29,15.76-52.26,9.71-79.81-5.4-24.59-17.34-45.75-36.71-62.37-22.83-19.59-48.92-28.33-79.05-24.5-29.42,3.74-52.26,18.65-69.73,41.83-16.26,21.57-23.8,46.31-23.28,74.92Z"/>
      <path d="m368.26,582.78h-104.14c-.91-44.26-1.82-88.43-2.73-132.61-.36-.01-.72-.02-1.09-.04-9.78,43.1-19.53,86.21-29.45,129.28-.32,1.39-2.36,3.42-3.6,3.42-28.83.17-57.65.09-86.48.05-.31,0-.61-.21-1.27-.44-10.24-44.92-20.53-90.02-30.81-135.13-.23.02-.46.03-.69.05,0,1.56.02,3.12,0,4.68-.33,27.3-.74,54.61-.98,81.91-.14,16.11-.03,32.23-.03,48.69H3.05c0-8.87-.25-17.62.08-26.35.28-7.62,1.4-15.2,1.82-22.81.81-14.91,1.22-29.84,2.1-44.74,1.15-19.35,2.61-38.68,3.9-58.03.42-6.29.75-12.59,1.05-18.89.7-14.91,1.26-29.83,2.04-44.73.9-17.22,1.93-34.43,3-51.64.72-11.58,1.61-23.15,2.47-35.46,1.33,0,2.92,0,4.51,0,40.66,0,81.32.04,121.98-.05,3.65,0,5.26.69,6.19,4.83,8.52,37.88,17.39,75.68,26.18,113.5,1.93,8.28,3.95,16.55,6.23,26.08,2.3-9.22,4.42-17.31,6.34-25.44,9.04-38.4,18.14-76.78,26.87-115.25.92-4.03,2.93-3.65,5.56-3.65,32.66,0,65.32,0,97.98,0,9.32,0,18.64,0,28.49,0,.4,2.7.97,5.24,1.13,7.8,1.36,22.16,2.65,44.33,3.95,66.5.38,6.46.77,12.93,1.07,19.4.7,14.92,1.26,29.85,2.04,44.77.9,17.04,1.98,34.07,2.97,51.11,1.01,17.4,2.01,34.79,3.01,52.19.99,17.2,1.96,34.4,3.02,51.59.18,2.95.76,5.89,1.23,9.42ZM100,377.17c.57-.02,1.13-.04,1.7-.06,14.94,65.56,29.89,131.12,44.79,196.51.6.24.9.47,1.2.48,24.16.05,48.33.15,72.49-.05,1.29-.01,3.33-2.36,3.71-3.94,5.4-22.78,10.61-45.61,15.8-68.45,6.47-28.45,12.87-56.91,19.33-85.35,3.06-13.5,6.2-26.97,9.48-41.26.85,34.02,1.82,67.12,2.46,100.24.55,28.47.67,56.96,1.11,85.43.07,4.42.85,8.82,1.3,13.21h85.27c-1.22-19.03-2.46-37.73-3.62-56.44-1.04-16.87-2.02-33.75-3-50.63-1.02-17.72-1.99-35.44-3.02-53.16-.97-16.72-2.06-33.44-2.95-50.17-1.09-20.38-2-40.76-3.08-61.14-.24-4.59-.85-9.17-1.33-14.18-2.21,0-4.17,0-6.14,0-34.83,0-69.67.05-104.5-.11-4.05-.02-5.91.88-6.52,5.21-.82,5.81-2.53,11.49-3.87,17.23-9.87,41.93-19.74,83.86-29.61,125.78-2.02,8.57-4.06,17.14-6.09,25.72-2.92-9.73-5.06-19.33-7.29-28.91-10.86-46.77-21.79-93.53-32.54-140.33-.83-3.59-2.26-4.69-5.94-4.67-35.33.15-70.67.09-106,.09-1.61,0-3.22,0-4.83,0-.52,2.55-1.17,4.48-1.26,6.43-.43,8.95-.67,17.91-1.06,26.86-.28,6.47-.62,12.93-1.05,19.39-1.28,19.36-2.75,38.71-3.89,58.08-.88,14.9-1.36,29.83-2.07,44.74-.29,6.13-.69,12.26-1.08,18.38-.95,14.9-1.99,29.79-2.88,44.68-.47,7.95-.57,15.91-1.08,23.86-.48,7.43-1.52,14.82-1.86,22.25-.33,7.02-.07,14.07-.07,21.03h84.54c.48-10.11,1.19-19.89,1.38-29.68.78-40.62,1.46-81.25,2.04-121.88.21-15.06.03-30.13.03-45.2Z"/>
      <path d="m889.46,280.24h101.81v302.76c-1.8,0-3.28,0-4.76,0-32.66,0-65.32-.06-97.98.09-3.54.02-5.33-1.23-6.92-4.18-12.8-23.72-25.74-47.37-38.63-71.04-12.74-23.4-25.47-46.79-38.23-70.18-.22-.41-.63-.72-1.52-1.73v146.77h-101.97v-302.43c1.34-.1,2.77-.28,4.19-.28,34.33-.01,68.65.02,102.98-.06,2.96,0,4.52.75,5.99,3.6,17.44,33.93,35.07,67.75,52.69,101.58,7.35,14.11,14.8,28.18,22.35,42.55v-147.46Zm8.3,8.13c-.14,1.79-.35,3.09-.34,4.4.18,43.99.29,87.98.66,131.97.06,7.77,1.26,15.52,1.77,23.3.42,6.37.61,12.75.95,20.09-1.27-2.15-2.14-3.48-2.87-4.88-29.34-56.51-58.7-113.02-87.93-169.59-2.05-3.97-4.33-5.61-9.04-5.56-28.83.27-57.66.14-86.49.15-1.61,0-3.23.16-5.07.25v285.37h85.62v-7.33c0-33.17,0-66.33,0-99.5,0-3,.02-6-.14-8.99-1.09-20.73-2.23-41.46-3.38-62.66,6.15,11.13,12.15,21.87,18.04,32.67,25.84,47.37,51.67,94.74,77.4,142.16,1.62,2.99,3.41,4.12,6.89,4.1,28.16-.15,56.33-.07,84.49-.07,1.44,0,2.89-.18,4.31-.28v-285.6h-84.84Z"/>
      <path d="m1474.03,582.63v-108.22h-71.91v108.3h-104.72v-302.36h104.56v105.99h71.87v-106.05h104.76v302.34h-104.55Zm-81.04-116.52h89.39v107.81h87.24v-285.42h-87.26v106.07h-89.67v-106.08h-86.51v285.38h86.81v-107.75Z"/>
      <path d="m1117.43.81c27.43.85,50.11,8.24,69.92,24,24.98,19.88,39.74,45.87,45.44,76.96,2.81,15.36,2.33,30.92.34,46.5-2.52,19.69-7.9,38.21-18.77,54.98-15.19,23.42-37.02,37.02-63.94,42.69-36.3,7.65-69.13-1.08-98.06-23.41-25.44-19.63-40.39-45.95-45.44-77.91-4.54-28.7-.27-55.99,13.56-81.31,17.66-32.34,44-53.81,81.11-60.34,6-1.06,12.08-1.65,15.84-2.16Zm-103.7,126.25c.53,4.33,1.18,11.4,2.29,18.4,4.5,28.15,18.17,51.36,40.22,68.93,27.57,21.96,58.97,30.68,94.01,22.58,24.62-5.69,44.63-18.21,58.01-40.21,8.83-14.53,13.5-30.36,15.87-47.15,2.27-16.06,2.86-32.08-.34-47.93-6.02-29.84-20.48-54.83-45.52-72.73-22.41-16.02-47.64-22.46-74.88-17.65-25.19,4.45-45.95,17.06-62.32,37-18.19,22.15-26.4,47.68-27.37,78.76Z"/>
      <path d="m1293.34,191.91c-11.85-5.31-22.97-10.25-31.12-19.99-11.5-13.75-6.17-31.28,11.84-34.35,17.49-2.98,35.37-3.38,52.85.55,16.09,3.62,20.65,20.23,10.39,33.09-8.14,10.2-19.57,15.27-31.63,20.66,7.97,8.12,16.62,14.6,28.3,15.03,11.76.44,19.08-6.77,24.96-15.89.71-1.1,1.07-2.48,1.94-3.41,1.05-1.12,2.48-1.88,3.75-2.79.45,1.41,1.55,2.98,1.26,4.22-4.38,18.22-14.9,29.17-33.12,29.66-11.75.32-22.42-4.73-30.9-13.38-.7-.71-1.25-1.57-2.03-2.57-6.86,7.37-14.64,12.31-23.97,14.7-21.82,5.6-38.24-7.77-42.72-27.97-.33-1.5.71-3.31,1.11-4.98,1.38,1.11,3.27,1.95,4.05,3.38,4.47,8.19,10,15.28,19.33,18.06,11.08,3.3,20.24-1.38,28.75-7.85,2.34-1.78,4.42-3.9,6.97-6.17Zm26.79-42.42c-7.74-6.28-35.27-5.89-40.05.3,7.23,5.74,32.87,5.69,40.05-.3Z"/>
      <path class="cls-1" d="m490.02,9.24h92.48c11.06,47.63,22.07,95.07,33.08,142.5.3-.01.61-.02.91-.03,3.5-14.67,7.06-29.33,10.49-44.02,7.41-31.76,14.7-63.54,22.23-95.27.32-1.36,2.46-3.25,3.77-3.26,29.5-.17,58.99-.1,88.49-.07.3,0,.61.19,1.02.33.5,5.35,1.18,10.73,1.46,16.13.77,14.91,1.21,29.84,2.09,44.75,1.15,19.37,2.66,38.71,3.88,58.07.53,8.44.67,16.9,1.09,25.35.66,13.25,1.31,26.5,2.13,39.74.85,13.73,1.91,27.46,2.85,41.19.09,1.28.01,2.58.01,4.11h-67.5c-.15-.53-.45-1.12-.46-1.73-.37-17.32-.75-34.63-1.03-51.95-.4-24.65-.76-49.3-1.03-73.95-.14-12.64-.02-25.27-.02-37.91-.55-.03-1.09-.07-1.64-.1-12.57,55.16-25.14,110.31-37.81,165.89-5.5,0-10.97,0-16.44,0-13.33,0-26.67-.06-40,.06-2.65.02-4.37-.45-5.01-3.32-7.32-32.61-14.67-65.21-22.05-97.81-4.73-20.88-9.55-41.74-14.82-62.61-.38,4.2-1,8.38-1.1,12.59-.44,18.98-.79,37.95-1.07,56.93-.39,26.81-.63,53.62-1.07,80.42-.07,4.44-.82,8.86-1.28,13.5h-67.2c.81-12.14,1.61-23.99,2.38-35.84.41-6.29.82-12.57,1.12-18.87.71-14.93,1.27-29.86,2.04-44.79.91-17.72,1.97-35.43,2.99-53.15.98-16.88,1.95-33.76,3.01-50.63.55-8.6,1.3-17.2,2-26.25Z"/>
      <path class="cls-1" d="m298.58,9c25.93,0,51.59-.05,77.24.13,1.38,0,3.52,1.67,4,3.03,17.47,49.91,34.79,99.86,52.12,149.82,8.48,24.45,16.92,48.9,25.36,73.36.37,1.07.65,2.17,1.04,3.49h-74.88c-2.77-9.77-5.7-19.45-8.19-29.24-.72-2.82-1.74-3.82-4.6-3.81-22.67.08-45.33.13-68-.07-3.18-.03-3.99,1.58-4.61,3.86-2.36,8.69-4.57,17.43-7.09,26.07-.38,1.31-2.07,3.19-3.16,3.2-22.82.19-45.63.14-69.23.14,26.74-76.88,53.29-153.24,79.99-229.99Zm61.6,144.99c-7.68-27.83-15.25-55.26-22.82-82.7-.32.04-.64.09-.97.13-7.54,27.39-15.08,54.78-22.73,82.57h46.52Z"/>
      <path class="cls-1" d="m399.99,288.39h88.01c0,2.06,0,3.97,0,5.88,0,55.82.07,111.65-.03,167.47-.04,26.22,17.15,42.72,42.18,42.36,15.15-.22,27.71-5.25,35.36-18.5,3.23-5.59,5.2-12.73,5.25-19.19.45-57.15.34-114.31.39-171.46,0-1.98,0-3.96,0-6.32h88.84c0,1.63,0,3.38,0,5.13,0,56.99.39,113.98-.19,170.97-.23,23.25-4.84,45.87-17.94,65.84-15.68,23.92-38.74,36.68-65.84,43.5-19.66,4.95-39.67,5.96-59.67,4.77-26.69-1.59-52.31-7.42-74.64-23.47-20.24-14.55-32.61-34.29-37.5-58.36-2.58-12.69-3.95-25.84-4.05-38.8-.43-54.49-.19-108.98-.19-163.47,0-1.96,0-3.93,0-6.35Z"/>
      <path class="cls-1" d="m1250.16,477.95c3.58,9.68,7.12,19.15,10.57,28.65,4.31,11.86,8.46,23.78,12.88,35.6,1.01,2.71.68,4.37-1.58,6.24-21.19,17.55-45.69,27.15-72.89,29.43-14,1.17-28.24,2.1-42.18.87-33.31-2.93-63.75-13.68-89.27-36.43-22.87-20.38-36.71-45.72-42.58-75.48-2.07-10.47-3.76-21.22-3.81-31.85-.15-32.75,6.9-63.66,26.15-90.95,19.97-28.3,47.45-45.4,80.6-54.05,18.02-4.7,36.41-6.81,54.94-5.85,27.29,1.4,53.79,6.54,77.95,20.32,1.13.65,2.1,1.65,3.29,2.12,3.44,1.38,4.05,3.38,2.87,6.98-7.29,22.37-14.32,44.82-21.42,67.16-7.66-4.13-15.15-8.47-22.89-12.28-16.08-7.91-33.3-11.27-50.98-9.25-30.88,3.53-53.97,20.35-60.36,53.33-4.53,23.37-2.07,46.22,14.19,65.38,9.49,11.18,21.98,18.14,36.22,20.98,32.29,6.45,61.64-.75,88.31-20.93Z"/>
      <path class="cls-1" d="m935.89,119.21c12.72,3.33,24.18,6.15,33.78,13.61,12.08,9.38,19.45,21.18,20.4,36.81.86,14.18-.81,27.7-8.97,39.71-8.98,13.23-22.13,20.83-37.18,24.4-11.92,2.82-24.31,4.82-36.53,5.04-36.15.65-72.33.23-108.49.24-1.79,0-3.58,0-5.64,0V8.99c1.73,0,3.49,0,5.24,0,32,0,64.01-.49,95.99.19,19.38.41,39.08,1.44,56.69,10.97,17.02,9.2,26.39,23.52,26.89,43.4.5,19.53-6.9,35.06-22.68,46.31-4.45,3.17-9.98,4.83-15.01,7.18-1.13.53-2.24,1.08-4.49,2.17Zm-73.54,24.77v46.01c9.65,0,18.94.1,28.24-.05,4.27-.07,8.65-.14,12.79-1.07,11.05-2.46,18.35-12.53,17.62-23.57-.78-11.67-8.38-20.45-20.01-21.15-12.71-.76-25.49-.17-38.63-.17Zm-.14-43.99c9.46,0,18.44.25,27.39-.07,10.05-.35,19.73-9.08,20.42-17.54,1.32-16.27-5.72-22.88-17.38-24.9-9.8-1.7-20.13-.35-30.43-.35v42.86Z"/>
      <path class="cls-1" d="m9.24,239.01V8.99c2.03,0,3.81,0,5.6,0,31.99,0,63.98-.41,95.96.16,17.95.32,36.12,1.47,52.82,9.03,16.77,7.59,27.83,20.18,30.38,39.06,3.2,23.66-5.4,41.97-25.51,54.65-4.62,2.91-10.06,4.53-16.06,7.15,5.17,1.46,9.69,2.57,14.11,4,19.56,6.32,34.19,17.95,38.85,38.85,4.4,19.73.89,38.25-12.72,53.68-9.43,10.69-22.26,16.48-35.99,19.21-11.41,2.27-23.15,3.87-34.76,4.03-35.65.51-71.3.19-106.95.19-1.8,0-3.59,0-5.74,0Zm68.98-49.01c10.9,0,21.21.09,31.53-.05,3.44-.04,6.97-.26,10.3-1.07,10.09-2.45,16.53-11.13,17.04-20.95.74-14.15-7.75-22.17-16.76-23.37-13.85-1.86-27.99-1.5-42.11-2.09v47.53Zm-.23-90c9.9,0,19.07.38,28.19-.12,6.76-.37,12.8-3.3,16.87-8.99,7.46-10.43,5.2-29.05-11.62-32.48-10.59-2.16-21.99-.4-33.44-.4,0,1.75,0,3.88,0,6.02,0,11.8,0,23.6,0,35.99Z"/>
      <path class="cls-1" d="m1379.96,127.69c-.51-28.61,7.03-53.35,23.28-74.92,17.47-23.18,40.31-38.09,69.73-41.83,30.12-3.82,56.22,4.91,79.05,24.5,19.36,16.62,31.3,37.78,36.71,62.37,6.05,27.55,3.54,54.53-9.71,79.81-17.38,33.17-44.62,53.24-81.47,60.43-22.19,4.32-43.27.82-63.43-8.52-25.07-11.62-40.14-31.97-47.98-57.93-4.45-14.76-6.58-29.94-6.17-43.91Zm36.12-2.78c1.31,8.44,2.04,17.02,4.08,25.28,3.4,13.75,10.01,26.08,21.56,34.62,18.93,14,41.03,8.05,54.93-10.57,14.44-19.35,19.14-41.34,16.48-65.27-1.65-14.92-6.19-28.54-15.39-40.37-7.77-9.98-18.08-16.26-30.9-16.13-14.6.15-25.43,8.23-33.75,19.55-11.48,15.62-16.15,33.5-17,52.88Z"/>
      <path class="cls-1" d="m100,377.17c0,15.07.18,30.13-.03,45.2-.58,40.63-1.26,81.25-2.04,121.88-.19,9.79-.9,19.57-1.38,29.68H12.01c0-6.95-.26-14.01.07-21.03.34-7.43,1.38-14.83,1.86-22.25.51-7.94.61-15.91,1.08-23.86.89-14.9,1.92-29.79,2.88-44.68.39-6.13.79-12.25,1.08-18.38.71-14.91,1.19-29.84,2.07-44.74,1.15-19.37,2.61-38.72,3.89-58.08.43-6.46.77-12.92,1.05-19.39.39-8.95.63-17.91,1.06-26.86.09-1.96.74-3.89,1.26-6.43,1.62,0,3.23,0,4.83,0,35.33,0,70.67.06,106-.09,3.68-.02,5.11,1.08,5.94,4.67,10.76,46.8,21.68,93.56,32.54,140.33,2.22,9.58,4.37,19.18,7.29,28.91,2.03-8.57,4.07-17.14,6.09-25.72,9.87-41.93,19.75-83.86,29.61-125.78,1.35-5.73,3.06-11.42,3.87-17.23.61-4.33,2.47-5.23,6.52-5.21,34.83.16,69.67.1,104.5.11,1.97,0,3.93,0,6.14,0,.48,5.01,1.09,9.58,1.33,14.18,1.08,20.38,1.99,40.76,3.08,61.14.9,16.73,1.99,33.44,2.95,50.17,1.03,17.72,1.99,35.44,3.02,53.16.98,16.88,1.95,33.76,3,50.63,1.16,18.7,2.39,37.4,3.62,56.44h-85.27c-.45-4.39-1.24-8.79-1.3-13.21-.44-28.48-.56-56.96-1.11-85.43-.64-33.11-1.61-66.22-2.46-100.24-3.28,14.28-6.42,27.76-9.48,41.26-6.46,28.45-12.86,56.91-19.33,85.35-5.19,22.83-10.4,45.66-15.8,68.45-.37,1.57-2.42,3.93-3.71,3.94-24.16.2-48.32.1-72.49.05-.3,0-.61-.23-1.2-.48-14.9-65.39-29.85-130.95-44.79-196.51-.57.02-1.13.04-1.7.06Z"/>
      <path class="cls-1" d="m897.77,288.37h84.84v285.6c-1.42.1-2.86.28-4.31.28-28.16,0-56.33-.08-84.49.07-3.48.02-5.27-1.11-6.89-4.1-25.73-47.43-51.56-94.8-77.4-142.16-5.89-10.8-11.89-21.54-18.04-32.67,1.15,21.2,2.29,41.93,3.38,62.66.16,2.99.14,6,.14,8.99,0,33.17,0,66.33,0,99.5v7.33h-85.62v-285.37c1.85-.1,3.46-.25,5.07-.25,28.83-.02,57.67.12,86.49-.15,4.72-.04,7,1.6,9.04,5.56,29.23,56.57,58.59,113.07,87.93,169.59.73,1.4,1.6,2.73,2.87,4.88-.34-7.34-.52-13.72-.95-20.09-.51-7.77-1.71-15.53-1.77-23.3-.36-43.99-.48-87.98-.66-131.97,0-1.3.2-2.61.34-4.4Z"/>
      <path class="cls-1" d="m1392.99,466.12v107.75h-86.81v-285.38h86.51v106.08h89.67v-106.07h87.26v285.42h-87.24v-107.81h-89.39Z"/>
      <path class="cls-1" d="m1013.73,127.06c.96-31.08,9.18-56.61,27.37-78.76,16.37-19.94,37.13-32.54,62.32-37,27.24-4.81,52.47,1.62,74.88,17.65,25.04,17.9,39.49,42.89,45.52,72.73,3.2,15.85,2.61,31.87.34,47.93-2.37,16.79-7.04,32.62-15.87,47.15-13.38,22-33.4,34.52-58.01,40.21-35.04,8.1-66.45-.62-94.01-22.58-22.06-17.57-35.72-40.78-40.22-68.93-1.12-7-1.76-14.07-2.29-18.4Zm79.85-7.33c.47,4.93.77,9.89,1.44,14.79,2.67,19.34,9.95,36.6,25.44,49.02,5.23,4.19,12.37,7.15,19.02,8.18,17.15,2.67,29.53-6.02,38.39-19.86,11.24-17.58,14.69-36.89,12.31-57.65-1.84-16.06-6.62-30.77-16.49-43.53-18.21-23.53-47.01-24.95-65.22.17-10.55,14.55-14.57,31.1-14.88,48.88Z"/>
      <path class="cls-1" d="m1320.13,149.48c-7.18,5.99-32.81,6.04-40.05.3,4.78-6.2,32.31-6.58,40.05-.3Z"/>
      <path d="m360.18,153.98h-46.52c7.65-27.78,15.19-55.18,22.73-82.57.32-.04.64-.09.97-.13,7.57,27.43,15.14,54.87,22.82,82.7Zm-35.18-8.13h23.84c-3.89-13.97-7.72-27.75-11.56-41.54l-.93.29c-3.73,13.56-7.46,27.12-11.35,41.25Z"/>
      <path d="m862.35,143.98c13.14,0,25.92-.59,38.63.17,11.64.7,19.23,9.48,20.01,21.15.74,11.04-6.57,21.11-17.62,23.57-4.14.92-8.52,1-12.79,1.07-9.29.15-18.59.05-28.24.05v-46.01Zm8.81,37.01c9.45,0,18.4.22,27.34-.07,6.87-.22,12.91-5.97,13.49-12.1.79-8.49-2.47-14.41-10.73-15.61-9.84-1.44-19.92-1.16-30.1-1.63v29.41Z"/>
      <path d="m862.21,99.99v-42.86c10.3,0,20.63-1.35,30.43.35,11.66,2.03,18.71,8.64,17.38,24.9-.69,8.46-10.36,17.19-20.42,17.54-8.96.31-17.94.07-27.39.07Zm9-9.01c6.57,0,12.86.3,19.11-.08,6.15-.37,11.2-5.98,11.6-12.05.37-5.65-4.46-12.23-10.24-12.7-6.7-.54-13.49-.13-20.46-.13v24.95Z"/>
      <path d="m78.23,190v-47.53c14.12.59,28.26.23,42.11,2.09,9.01,1.21,17.5,9.22,16.76,23.37-.51,9.82-6.95,18.5-17.04,20.95-3.33.81-6.86,1.02-10.3,1.07-10.31.13-20.63.05-31.53.05Zm9.18-38.45v29.43c9.44,0,18.73.28,28-.09,6.54-.26,12.14-5.47,12.58-10.68.88-10.66-1.56-15.76-10.41-17.06-9.77-1.43-19.8-1.13-30.16-1.6Z"/>
      <path d="m78,99.99c0-12.39,0-24.19,0-35.99,0-2.13,0-4.26,0-6.02,11.45,0,22.85-1.76,33.44.4,16.82,3.44,19.09,22.05,11.62,32.48-4.07,5.69-10.11,8.62-16.87,8.99-9.12.5-18.3.12-28.19.12Zm9-9c6.95,0,13.23.15,19.51-.05,4.62-.15,10.4-4.92,11.38-8.93,1.4-5.69-.45-11.28-5.55-14.01-8.02-4.3-16.67-1.22-25.34-2.2v25.2Z"/>
      <path d="m1416.08,124.92c.85-19.38,5.52-37.26,17-52.88,8.32-11.32,19.15-19.41,33.75-19.55,12.82-.13,23.14,6.15,30.9,16.13,9.2,11.83,13.73,25.45,15.39,40.37,2.65,23.94-2.04,45.92-16.48,65.27-13.89,18.62-36,24.56-54.93,10.57-11.55-8.54-18.16-20.87-21.56-34.62-2.04-8.26-2.76-16.84-4.08-25.28Zm58.92-40.16c0-1.33.08-2.67-.01-4-.6-8.09-8.71-17.68-19.7-11.85-10.25,5.43-17.23,21.14-14.8,32.4,2.85,13.19,14.69,16.56,24.77,6.9,6.63-6.35,9.89-14.22,9.74-23.45Zm11.97,78.91c.09-9.67-4.96-12.75-11.5-9.49-5.44,2.72-7.65,7.67-8.35,13.13-.84,6.53,5.09,10.59,11.07,7.78,5.73-2.69,8.55-7.5,8.79-11.43Z"/>
      <path d="m1093.58,119.73c.31-17.78,4.33-34.33,14.88-48.88,18.21-25.12,47.01-23.71,65.22-.17,9.87,12.76,14.65,27.47,16.49,43.53,2.38,20.76-1.07,40.07-12.31,57.65-8.85,13.84-21.23,22.52-38.39,19.86-6.65-1.03-13.79-3.99-19.02-8.18-15.48-12.41-22.76-29.68-25.44-49.02-.68-4.9-.97-9.86-1.44-14.79Zm74.41-23.54c-.87-8.72-3.39-16.84-9.88-23.03-4.08-3.88-8.78-7.3-15.02-5.71-5.5,1.4-8.82,5.62-9.85,10.69-2.6,12.87,1.5,23.92,11.75,31.99,2.95,2.32,7.97,3.59,11.7,3.04,8.36-1.24,10.53-9.5,11.3-16.98Zm-26.78,72.3c-.78-6.99-4.25-11.17-8.91-14.29-5.31-3.55-10.72-.71-11.45,5.64-.67,5.81,1.76,10.53,6.31,13.57,2.38,1.59,6.3,2.48,8.88,1.67,2.19-.69,3.47-4.29,5.16-6.6Z"/>
      <path class="cls-1" d="m1475,84.75c.15,9.23-3.11,17.1-9.74,23.45-10.09,9.67-21.93,6.3-24.77-6.9-2.43-11.26,4.55-26.97,14.8-32.4,10.99-5.82,19.1,3.77,19.7,11.85.1,1.32.01,2.66.01,4Z"/>
      <path class="cls-1" d="m1486.97,163.67c-.23,3.93-3.06,8.74-8.79,11.43-5.98,2.81-11.9-1.25-11.07-7.78.7-5.46,2.91-10.41,8.35-13.13,6.54-3.27,11.58-.19,11.5,9.49Z"/>
      <path class="cls-1" d="m1167.99,96.19c-.76,7.47-2.93,15.73-11.28,16.97-3.73.55-8.75-.71-11.7-3.04-10.25-8.06-14.36-19.12-11.75-31.99,1.03-5.07,4.35-9.28,9.85-10.69,6.24-1.59,10.94,1.83,15.02,5.71,6.49,6.18,9.02,14.31,9.87,23.03Z"/>
      <path class="cls-1" d="m1141.21,168.49c-1.68,2.31-2.96,5.91-5.16,6.6-2.59.81-6.5-.08-8.88-1.67-4.56-3.04-6.99-7.76-6.31-13.57.74-6.36,6.15-9.2,11.45-5.64,4.66,3.12,8.12,7.3,8.91,14.29Z"/>
    </g>
  </g>
</svg>