<?xml version="1.0" encoding="UTF-8"?>
<svg id="Layer_2" data-name="Layer 2" xmlns="http://www.w3.org/2000/svg" viewBox="0 0 1322.43 332.15">
  <defs>
    <style>
      .cls-1 {
        fill: #fff;
      }

      .cls-2 {
        fill: #ffcb77;
      }
    </style>
  </defs>
  <g id="Layer_1-2" data-name="Layer 1">
    <path class="cls-1" d="m1211.12,332.13c-9.15.03-17.72.03-25.79,0-.61-.58-.76-.67-.83-.8-.07-.13-.1-.31-.1-.46-.05-2.07-.14-4.15-.14-6.22.01-60.74.03-121.47.06-182.21,0-.31.14-.62.24-.92.05-.14.16-.25.25-.38,3.45-.68,19.15-.81,24.31-.2,1.2.92.91,2.29,1,3.52.33,4.46.61,8.93.93,13.39.05.75.23,1.49.34,2.22,1.23.06,1.5-.81,1.96-1.4,8.2-10.62,19.11-16.99,32.14-19.26,21.26-3.72,40.32,1.39,56.4,16.02,9.48,8.63,15.22,19.58,18.19,32.02,3.81,15.99,3.07,31.76-2.73,47.13-7.61,20.16-22.05,32.91-43.02,37.96-12.68,3.05-25.38,2.8-37.86-1.23-8.99-2.91-16.89-7.57-22.89-15.07-.39-.49-.85-.92-1.23-1.33-1.61.34-1.03,1.55-1.04,2.34-.05,9.11-.04,18.22-.04,27.33,0,13.91,0,27.81,0,41.72,0,1.73-.09,3.46-.15,5.84Zm84.58-128c-.19-1.68-.33-5.07-1.01-8.33-2.64-12.68-9.51-22.29-21.49-27.61-9.64-4.28-19.74-5.04-30.02-2.38-11.88,3.08-20.57,10.13-25.53,21.36-5.22,11.82-5.44,23.92-.42,35.87,4.58,10.89,12.68,18.27,23.88,22.1,6.46,2.21,13.13,2.52,19.89,1.63,10.28-1.35,18.84-5.85,25.46-13.84,6.5-7.85,9.16-17.05,9.25-28.79Z"/>
    <path class="cls-1" d="m853.1,159.19c.63-3.71.34-6.39.39-9.05.05-2.56.01-5.12.01-7.68v-40.3c0-2.56-.05-5.12.01-7.68.06-2.68-.28-5.39.29-8.03.61-.25,1.03-.59,1.46-.59,7.68-.05,15.35-.06,23.03-.06.6,0,1.2.23,1.78.36.21.6.49,1.04.49,1.48.04,60.13.06,120.25.06,180.38,0,.78-.2,1.55-.32,2.49-4.2.92-8.34.36-12.45.43-4.12.07-8.26.18-12.48-.14-1.77-6.28-.32-12.67-2.25-19.09-.79.87-1.35,1.4-1.8,2.01-7.58,10.31-17.9,16.32-30.31,18.6-16.4,3.01-32.18.85-46.98-7.03-12.65-6.73-21.56-16.94-26.64-30.29-7.47-19.62-7.57-39.46-.15-59.06,7.18-18.95,21.04-30.86,40.57-36.18,15.5-4.22,30.66-3.56,45.42,3.15,7.71,3.51,14.33,8.36,19.88,16.27Zm-1.32,46.61c-.47-3.63-.61-7.34-1.48-10.87-3.53-14.38-12.17-24.46-26.29-29.26-10.5-3.57-21.06-3.05-31.35,1.23-8.45,3.51-14.95,9.3-18.81,17.58-6.57,14.12-6.61,28.46.14,42.54,3.93,8.21,10.39,14.08,18.8,17.64,9.26,3.92,18.79,4.65,28.58,2.14,10.59-2.71,18.71-8.67,24.25-18.08,4.15-7.05,6.04-14.71,6.16-22.93Z"/>
    <path class="cls-2" d="m583.77,215.54c-2.33.03-4.23.08-6.14.08-30.85,0-61.71,0-92.56.02-1.87,0-3.84-.44-5.77.7.62,7.44,3.74,13.76,8.68,19.24,4.96,5.5,11.22,9.02,18.29,10.9,15.35,4.08,30.08,2.02,44.16-5.11,1.56-.79,3.03-1.78,4.47-2.77,1.44-1,2.79-2.13,4.15-3.18,3.4,2.15,14.59,13.01,17.18,16.7-4.41,5.15-9.88,9-15.85,12.11-11.37,5.93-23.47,9.1-36.32,9.36-8.83.18-17.56-.3-26.1-2.8-24.06-7.02-39.12-22.63-44.89-47.03-2.95-12.48-3.07-25.07.13-37.51,6.01-23.35,20.51-38.82,43.6-46.15,8.98-2.85,18.18-3.25,27.49-2.93,9.22.32,18.05,2.28,26.41,6.16,15.07,6.97,24.85,18.59,30.02,34.28,3.77,11.44,4.26,23.19,3.63,35.06-.04.76-.29,1.52-.57,2.86Zm-103.95-22.54c2.41.07,4.15.16,5.88.16,21.08.01,42.16,0,63.24,0,2.24,0,4.47.05,6.71-.04.87-.03,1.74-.39,2.55-.58-.44-13.81-8.98-24.27-20.85-28.49-8.94-3.18-18.14-3.84-27.37-1.83-14.99,3.26-24.92,12.28-29.5,27.01-.32,1.03-.38,2.14-.66,3.76Z"/>
    <path class="cls-2" d="m331.99,86.67c4.39-.88,22.18-.84,25.97.02,1.05,1.59.65,3.4.65,5.12.03,13.27.02,26.54.02,39.81,0,18.55,0,37.1,0,55.64,0,1.73.07,3.46.11,5.07,1.76.67,2.34-.52,3.03-1.28,5.7-6.27,11.37-12.57,17.04-18.86,8.57-9.5,17.17-18.96,25.67-28.51,1.73-1.94,3.55-2.86,6.2-2.81,8.31.14,16.63.04,24.95.06,1.11,0,2.21.15,3.21.22.85,1.29-.1,1.92-.7,2.57-5.66,6.09-11.34,12.15-17.02,18.22-11.37,12.13-22.76,24.25-34.12,36.38-.98,1.04-1.87,2.16-3.01,3.5,1.03,1.25,1.95,2.5,3.01,3.62,8.03,8.47,16.09,16.91,24.13,25.37,11.13,11.69,22.26,23.39,33.38,35.09,1.08,1.13,2.44,2.09,2.75,3.91-.39.28-.74.76-1.1.76-10.54.04-21.09.03-31.86.03-9.06-9.81-18.17-19.66-27.26-29.52-9.05-9.82-18.04-19.7-27.36-29.59-1.4,1.71-1.01,3.19-1.02,4.54-.03,13.91-.02,27.82-.02,41.73,0,3.04.03,6.08-.02,9.11-.02,1.09-.24,2.17-.37,3.35-.77.18-1.37.45-1.97.45-7.68,0-15.35-.01-23.03-.06-.43,0-.85-.33-1.54-.61-.07-1.21-.19-2.45-.2-3.7-.58-50.61-.27-174.47.48-179.64Z"/>
    <path class="cls-1" d="m1155.64,205.76c.28,11.65-2.14,22.49-7.21,32.67-7.8,15.67-20.17,26.26-36.8,31.55-16.34,5.2-32.77,5.03-48.92-.91-16.97-6.24-29.01-17.88-35.67-34.64-8-20.12-7.75-40.41,1.29-60.09,8.53-18.57,23.26-30.15,43.18-34.78,15.02-3.49,29.83-2.51,44.21,3.3,15.22,6.15,26.22,16.82,33.24,31.57,4.74,9.96,7.01,20.52,6.69,31.33Zm-27.6-.43c.03-3.36-.28-7.32-1.31-11.23-2.34-8.91-6.76-16.55-13.88-22.47-8.02-6.67-17.37-9.25-27.7-8.53-11.3.79-20.71,5.39-27.49,14.54-9.42,12.73-10.91,26.97-7.01,41.96,2.29,8.8,7.15,16.04,14.54,21.38,8.87,6.41,18.86,8.29,29.6,6.74,10.51-1.52,18.94-6.54,25.15-15.15,5.71-7.92,8.19-16.88,8.08-27.25Z"/>
    <path class="cls-2" d="m661.96,239.57c4.1-8.94,6.7-17.32,9.96-25.42,3.28-8.15,6.44-16.35,9.76-24.48,3.26-7.99,6.59-15.94,9.99-23.87,3.46-8.06,6.62-16.25,10.21-24.06,5.78-.63,25.53-.49,28.92.17.05.3.23.66.13.89-26.83,62.7-53.68,125.39-80.48,187.98-3.37,1.29-6.59.62-9.74.73-3.19.11-6.4.09-9.59,0-3.17-.08-6.37.39-9.42-.4-.83-1.54.19-2.62.66-3.71,6.96-16.13,13.97-32.25,20.97-48.37.95-2.2,1.78-4.46,2.88-6.58,1.05-2.03.92-3.83.05-5.92-3.99-9.58-7.84-19.23-11.74-28.85-9.61-23.68-19.21-47.37-28.82-71.05-2.76-6.81-5.55-13.61-8.29-20.42-.52-1.29-.89-2.64-1.22-3.65.29-.56.34-.74.45-.83.11-.1.29-.15.45-.16.79-.07,1.59-.18,2.38-.18,8.78-.01,17.57,0,26.09,0,1.66,1.25,1.95,2.88,2.49,4.34,4.4,11.99,8.85,23.97,13.15,36,6.39,17.9,12.67,35.84,19.02,53.76.37,1.04.87,2.03,1.75,4.08Z"/>
    <path class="cls-2" d="m98.53,190.52c.09.78.23,1.54.26,2.31.44,12.55.14,112.39-.34,116.49-.95,1.16-2.29.88-3.53.83-9.72-.35-18.97-2.74-27.68-6.95-17.74-8.58-30.32-22.08-37.61-40.41-3.28-8.24-5.07-16.85-5.17-25.71-.15-14.54-.06-29.09-.05-43.64,0-.93.13-1.86.21-3.05,1.07-.2,1.96-.43,2.87-.53.79-.09,1.6-.04,2.4-.04,21.1,0,42.21,0,63.31.01,1.71,0,3.49-.27,5.34.67Z"/>
    <path class="cls-2" d="m179.74,309.84c-.17-1.21-.37-2.12-.41-3.05-.47-10.5-.14-112.23.39-116.25.79-.21,1.66-.6,2.56-.65,1.91-.11,3.83-.06,5.75-.06,19.66,0,39.32,0,58.99,0,1.9,0,3.8.09,5.92.14.21,1.31.53,2.37.53,3.43.03,14.38.17,28.77-.03,43.15-.25,18.08-6.27,34.12-18.08,47.85-12.17,14.15-27.65,22.41-46.04,25.25-2.98.46-6.02.79-9.59.18Z"/>
    <path class="cls-2" d="m247.52,80.42c-.09,3.18-1.76,5.37-5.02,6.13-2.8.65-5.65,1.07-8.49,1.52-11.83,1.88-23.66,3.75-35.49,5.61-10.89,1.71-21.79,3.38-32.68,5.08-3.16.49-6.31,1.01-9.45,1.6-2.94.55-5.4-.14-7.25-2.55-1.84-2.39-1.98-5.04-.7-7.68,2.58-5.32,5.27-10.58,7.92-15.86,10.69-21.27,21.38-42.54,32.08-63.81,1.22-2.43,2.39-4.88,3.76-7.23,1.58-2.72,3.96-3.68,6.92-3.07,2.08.43,3.24,1.9,4.24,3.59,3.03,5.08,6.08,10.14,9.1,15.23,10.85,18.27,21.71,36.54,32.54,54.82,1.21,2.05,2.69,4.02,2.51,6.6Z"/>
    <path class="cls-1" d="m942.12,140.93c1.58,4.95,1.05,10.17,2.59,15.6.84-.96,1.4-1.47,1.82-2.09,6.96-10.24,16.88-15.14,28.98-16.44,8.08-.87,15.95-.2,23.68,2.21,5.69,1.77,10.86,4.49,15.46,8.8-3.74,7.91-7.84,15.44-11.82,23.04-1.81.28-2.7-1.08-3.79-1.84-10.96-7.75-31.63-7.07-42.75,2.43-5.83,4.99-9.44,11.22-10.78,18.69-.62,3.44-.92,6.98-.94,10.47-.08,21.09-.04,42.18-.05,63.28,0,1.73-.1,3.46-.16,5.44-2.98.87-5.85.38-8.66.45-3.03.08-6.07.06-9.11.01-2.84-.05-5.7.26-8.26-.23-.34-.4-.47-.5-.55-.64-.08-.13-.14-.29-.15-.44-.06-1.12-.14-2.23-.14-3.35.02-41.38.04-82.77.08-124.15,0-.3.19-.6.32-.99.38-.15.81-.47,1.25-.47,6.71-.07,13.42-.1,20.13-.11.94,0,1.87.21,2.85.33Z"/>
    <path class="cls-2" d="m98.42,164.87c-1.57.08-2.68.2-3.79.2-23.95,0-47.91,0-71.86.02-4.08,0-7.93-.78-11.45-2.87-6.78-4.03-10.55-9.9-11.23-17.85-1.1-12.99,9.2-24.29,22.61-24.25,24.11.07,48.23.01,72.34.03,1.08,0,2.15.16,3.22.25.22.7.48,1.14.48,1.58.03,13.57.04,27.14.03,40.71,0,.61-.19,1.21-.35,2.19Z"/>
    <path class="cls-2" d="m179.93,164.95c-.79-4.31-.87-39.48-.17-44.28.81-.17,1.69-.43,2.6-.52.95-.1,1.91-.03,2.87-.03,22.84,0,45.68,0,68.52,0,2.72,0,5.38.21,8.05.91,9.38,2.44,17.32,12.06,16.15,23.7-1.36,13.53-12.5,20.48-21.66,20.34-1.76-.03-3.51.01-5.27.01-21.72,0-43.45,0-65.17,0-1.9,0-3.79-.07-5.93-.12Z"/>
    <path class="cls-2" d="m122.95,190.37c1.2-.24,1.81-.46,2.42-.46,9.1-.03,18.2-.03,27.31-.01.62,0,1.24.22,2.11.39.16,1.07.43,2.13.46,3.2.06,3.03.03,6.07.03,9.1,0,33.69,0,67.38,0,101.07,0,1.89-.08,3.79-.12,5.8-.79.28-1.36.66-1.93.66-9.42.04-18.84.03-28.26,0-.45,0-.9-.23-1.61-.43-.16-.83-.41-1.73-.49-2.64-.09-1.11-.04-2.23-.04-3.35,0-35.77,0-71.53,0-107.3,0-1.89.08-3.79.14-6.04Z"/>
    <path class="cls-2" d="m127.86,91.74c.09,3.97-4.26,8.11-9.12,6.58-9.6-3.02-19.35-5.53-29.03-8.28-13.37-3.79-26.73-7.6-40.09-11.41-1.69-.48-3.41-.9-5.02-1.58-4.59-1.95-5.66-7.52-2.16-11.09.66-.68,1.48-1.2,2.26-1.75,15.66-11.07,31.33-22.14,47-33.2,1.04-.74,2.09-1.5,3.21-2.1,2.84-1.53,5.74-.81,7.52,1.91.69,1.06,1.15,2.28,1.65,3.46,5.75,13.52,11.49,27.06,17.23,40.58,1.75,4.12,3.56,8.21,5.24,12.36.59,1.45.89,3.02,1.32,4.54Z"/>
    <path class="cls-2" d="m154.73,121.25c.76,4.65.72,39.36-.05,43.47-5.12.73-10.36.25-15.57.32-5.22.08-10.45.08-15.85-.05-.19-1.2-.38-1.95-.42-2.71-.39-7.5-.1-37.23.41-40.88.63-.18,1.36-.57,2.09-.57,9.26-.03,18.51-.01,27.77.01.46,0,.92.22,1.62.4Z"/>
  </g>
</svg>