<?xml version="1.0" encoding="UTF-8"?>
<svg id="Layer_2" data-name="Layer 2" xmlns="http://www.w3.org/2000/svg" viewBox="0 0 784.49 644.4">
  <defs>
    <style>
      .cls-1 {
        fill: #fff;
      }
    </style>
  </defs>
  <g id="Layer_1-2" data-name="Layer 1">
    <path class="cls-1" d="m574.16,582.4c-.52.1-1.37.24-2.21.41-28.08,5.79-55.52,13.84-82.68,22.95-9.62,3.23-19.32,6.29-29.1,8.98-15.69,4.32-29.89,1.02-42.49-9.26-.55-.45-1.08-.93-1.71-1.48-.35.27-.7.46-.92.74-10.18,12.62-23.57,20.14-38.92,24.55-12.05,3.46-24.41,5.05-36.87,5.99-6.29.47-12.61.99-18.91.96-13.9-.08-27.09-3.32-39.35-10-6.59-3.59-12.48-8.1-17.4-13.78-11.38-13.15-14.93-28.46-12.34-45.42,2.98-19.54,7.41-38.78,11.66-58.07.22-.99.4-1.98.63-3.14-.72,0-1.19-.08-1.63.01-8.47,1.67-16.93,3.41-25.41,5.01-1.62.31-2.25.99-2.53,2.58-2.68,15.04-5.2,30.1-6.93,45.28-2.16,18.99-4.19,37.99-6.3,56.98-.58,5.24-1.28,10.48-1.8,15.73-.15,1.5-.73,2.2-2.18,2.64-9.5,2.84-18.89,6.07-28.46,8.6-15.9,4.2-30.35.86-42.72-10.01-8.36-7.35-12-16.88-11.54-28.06.8-19.13,3.07-38.1,6.44-56.92,3.53-19.67,7.33-39.29,10.97-58.94,1.88-10.14,3.58-20.31,5.55-30.43,3.91-20.01,7.82-40.02,12.03-59.96,1.98-9.38,4.66-18.61,7.01-27.9,3.87-15.26,13.63-25.34,27.77-31.57,6.03-2.66,12.4-4.21,18.76-5.81,13.2-3.32,26.66-5.26,40.02-7.73,10.06-1.86,20.15-3.56,30.23-5.34.54-.09,1.06-.27,1.9-.48-.66-.58-1.08-1.01-1.56-1.36-5.15-3.82-9.28-8.5-12.23-14.24-4.65-9.02-7.8-18.55-10.19-28.37-.28-1.16-.56-2.32-.88-3.66-.74.16-1.37.21-1.92.43-7.71,3.1-15.4,6.25-23.13,9.32-1.47.59-2.25,1.58-2.81,3.01-2.33,5.87-4.63,11.75-7.17,17.53-2.46,5.58-5.76,10.68-9.66,15.4-6.32,7.63-14.51,11.89-24.16,13.5-7.39,1.23-14.66.58-21.79-1.73-.53-.17-1.07-.33-1.6-.49-.07-.02-.16,0-.53,0-.41.53-.96,1.19-1.46,1.87-7.48,10.16-15.82,19.58-25.73,27.37-14.95,11.74-31.21,21.2-49.86,25.93-10.04,2.54-20.18,3.05-30.45,1.41-12.22-1.95-22.2-7.8-30.36-16.94-5.27-5.9-9.2-12.66-12.5-19.81-3.12-6.75-6.14-13.54-9.4-20.22-1.43-2.93-3.27-5.68-5.06-8.41-3.34-5.09-6.54-10.24-8.83-15.91-1.63-4.03-2.57-8.24-3.33-12.49-.12-.69-.12-1.44.01-2.13,4.55-24.04,22.87-36.01,38.33-38.89,2.27-.42,4.6-.53,6.9-.77.77-.08,1.54-.13,2.73-.23-.73-.99-1.23-1.67-1.73-2.35-8.19-11.2-13.44-23.57-14.93-37.43-1.17-10.94-.05-21.71,2.45-32.37,2.59-11.01,6.49-21.58,10.9-31.97,11.17-26.37,26.45-50.17,45.31-71.66,10.95-12.48,23.58-23.03,38.33-30.78,22.29-11.71,43.96-9.96,64.12,4.73,17.17,12.51,25.73,29.98,25.91,51.32.14,16.72-2.36,33.15-6.01,49.42-1.21,5.38-2.63,10.71-3.95,16.07-.18.75-.33,1.51-.23,2.37.35-.51.73-1.01,1.04-1.55,15.95-28.13,33.55-55.21,52.15-81.64.41-.59.82-1.18,1.19-1.8,6.57-11.15,16.32-17.84,28.94-20.23,12.85-2.44,24.85-.12,35.61,7.46,8.64,6.09,13.9,14.54,15.78,24.88.84,4.62.9,9.39,1.17,14.09.31,5.33.46,10.67.69,16.2.98-.45.97-1.34,1.19-2.01,3.96-11.85,8.63-23.4,14.24-34.56,10.58-21.06,24.05-39.99,41.52-55.93,12.75-11.63,27.32-19.99,44.23-23.93,12.65-2.95,25.26-2.89,37.61,1.4,19.25,6.69,32.39,19.53,39.15,38.96,3.6,10.35,4.53,20.9,3.92,31.67-.31,5.5-1.01,10.98-1.54,16.47-.11,1.11-.35,2.23-.32,3.34.04,2.11-.04,4.14-1.34,5.95-.28.4-.24,1.03-.04,1.68.32-.58.68-1.15.96-1.75,12.38-26.54,26.1-52.38,41.18-77.49.57-.95,1.2-1.9,1.94-2.72,4.22-4.71,8.44-9.41,12.72-14.05,4.37-4.73,9.56-8.2,15.76-10.12,4.94-1.53,9.96-1.42,14.98-.76,13.62,1.81,25.14,7.64,34.09,18.21,6.42,7.59,9.53,16.5,10.5,26.31,1.73,17.43,3.56,34.84,5.37,52.26.43,4.13.93,8.24,1.44,12.73.99-.29,1.79-.49,2.57-.77,7.43-2.6,15.03-4.39,22.91-4.9,4.34-.28,8.64-.04,12.86,1,14.57,3.6,23.56,16.67,21.73,31.77-.99,8.15-3.44,15.93-6.71,23.44-1.5,3.44-3.25,6.77-4.95,10.12-3.66,7.18-9.46,12.41-15.81,17.1-.76.56-1.7.88-2.58,1.24-3.56,1.44-7.13,2.85-10.69,4.28-.73.29-1.43.63-2.35,1.03.35,1.02.64,1.91.96,2.79,2.7,7.52,5.68,14.96,8.05,22.58,3.3,10.6,4.32,21.47,2.2,32.47-2.25,11.7-7.85,21.23-18.37,27.38-6.57,3.84-13.77,5.61-21.32,5.74-11.76.21-22.63-2.84-32.36-9.54-5.92-4.08-10.45-9.32-13.4-15.95-3.74-8.42-6.95-17.02-9.68-25.81-.33-1.05-.7-2.1-1.1-3.28-.66.21-1.19.33-1.67.55-9.73,4.49-19.44,9.01-29.19,13.46-1.23.56-1.82,1.37-2.17,2.61-1.36,4.85-2.73,9.7-4.22,14.51-1.87,6.04-4.22,11.91-7.32,17.44-.15.27-.25.57-.43,1,.46.32.88.66,1.33.92.41.24.86.43,1.3.62,12.99,5.57,15.7,16.58,15.09,26.32-.32,5.16-1.68,10.08-3.4,14.92-.29.82-.55,1.64-.85,2.54,1.12.66,2.13.17,3.1.07,6.44-.63,12.87-1.42,19.32-1.93,12.04-.94,22.17,2.96,30.06,12.27.15.18.36.31.63.55.23-.17.52-.3.7-.52,6-7.43,13.75-12.37,22.6-15.64,8.35-3.08,17-5.1,25.71-6.76,4.1-.78,8.28-.61,12.41.13,11.79,2.09,19.78,10.77,20.94,22.73.6,6.22-.36,12.29-1.69,18.31-4.92,22.25-9.89,44.48-14.84,66.72-4.93,22.16-9.68,44.37-13.46,66.76-.89,5.28-1.7,10.58-2.52,15.87-.12.77-.14,1.55-.24,2.62,1.01-.24,1.76-.38,2.5-.59,18.01-5.12,36.2-9.45,54.64-12.68,5.67-.99,11.32-2.16,17.03-2.81,9.37-1.08,18.42.36,26.61,5.21,13.01,7.7,18.75,19.4,18.11,34.35-.27,6.31-2.03,12.28-4.6,18.02-.85,1.9-1.79,3.75-2.59,5.67-.52,1.26-1.39,2.02-2.55,2.69-11.79,6.74-24.5,10.97-37.72,13.71-28.54,5.93-56.42,14.19-84.04,23.44-9.25,3.1-18.53,6.15-27.97,8.58-16.78,4.33-31.68.41-44.21-11.64-2.44-2.35-4.27-5.34-6.6-8.31Zm-223.95-362.11c.07,1.34.12,2.13.14,2.92.18,5.51.31,11.03.53,16.54.33,7.91.91,15.81,2.37,23.61,1.72,9.19,4.61,17.94,9.55,25.96,5.94,9.64,14.5,15.72,25.43,18.2,16.94,3.84,32.61.47,46.68-9.59,14.2-10.15,25.24-23.24,34.07-38.23,8.38-14.24,14.17-29.52,17.97-45.57.53-2.24.54-2.21,2.77-2.46,3.58-.39,7.15-.84,10.73-1.2,1.62-.16,2.66-.91,3.19-2.44.47-1.36,1.09-2.67,1.47-4.05,1.69-6.17,3.41-12.33,4.91-18.54.4-1.66.36-3.53.07-5.22-.8-4.66-2.88-8.77-5.95-12.39-1.5-1.77-3.33-2.7-5.69-2.37-4.2.58-8.43.96-12.58,1.78-14.66,2.91-29.3,5.93-43.94,8.99-5.72,1.2-11.32,2.85-16.56,5.53-4.41,2.25-8.2,5.25-11.26,9.16-.67.86-1.13,1.64-.68,2.82,1.58,4.13,3.46,8.08,6.26,11.55,2.63,3.25,5.89,5.38,10.14,5.74,4.62.39,9.24.75,13.86,1.12.85.07,1.7.11,2.92.19-3.89,13.04-9.57,24.83-17.14,35.73-6.83,9.83-14.9,18.47-24.55,25.99-.48-1.14-.84-1.93-1.16-2.74-5.5-14.24-7.44-29.06-7.13-44.23.26-12.83,1.9-25.52,4.45-38.07,2.96-14.57,6.08-29.11,9.41-43.6,3.92-17.09,10.05-33.35,19.13-48.43,7.37-12.23,16.43-23.02,27.56-32.01.77-.62,1.59-1.19,2.68-2.01.37,1.59.69,2.73.91,3.89,1.33,7.03,1.66,14.13,1.18,21.26-.45,6.86-.94,13.72-1.46,20.58-.42,5.63,1.39,10.43,5.48,14.26,1.85,1.74,3.91,3.33,6.08,4.65,3.2,1.95,6.58,3.62,9.89,5.39,1.46.78,2.95,1.53,4.54,2.35.53-.78,1.04-1.39,1.41-2.08,2.55-4.71,5.26-9.34,7.57-14.16,3.82-7.97,6.53-16.34,7.81-25.09.75-5.13,1.13-10.33,1.48-15.51.64-9.47-.46-18.66-4.57-27.38-2.42-5.13-5.34-9.87-9.87-13.39-10.6-8.24-22.53-11.4-35.83-9.18-11.37,1.9-21.48,6.69-30.64,13.53-8.05,6.01-15.04,13.16-21.48,20.83-13.94,16.6-23.99,35.43-31.67,55.59-6.22,16.33-10.7,33.16-14.04,50.29-.29,1.49-.64,2.98-.81,4.48-.54,4.66-2.94,8.16-6.98,10.3-3.01,1.6-6.28,2.75-9.5,3.92-4.58,1.66-9.21,3.15-13.83,4.71-.12.04-.28-.08-.56-.16-.1-.72-.27-1.5-.32-2.29-.39-5.98-.93-11.96-1.09-17.95-.3-10.95-.41-21.91-.55-32.86-.16-12.88-.4-25.74-1.42-38.59-.59-7.35-4.42-12.33-10.9-15.43-4.31-2.06-8.92-2.54-13.6-1.84-6.76,1.01-12.17,4.2-15.63,10.31-.55.97-1.22,1.87-1.85,2.8-9.19,13.67-18.61,27.19-27.54,41.02-19.25,29.79-36.54,60.68-51.2,93.01-9.26,20.41-17.33,41.27-23.96,62.69-2.11,6.8.31,11.98,6.87,14.8,4.47,1.92,9.12,2.23,13.88,1.46,4.88-.79,8.94-2.94,11.74-7.13,1.55-2.32,3.24-4.6,4.44-7.1,2.17-4.54,4.03-9.22,6-13.85,1.76-4.12,3.52-8.23,5.24-12.36.68-1.63,1.77-2.75,3.4-3.5,5.74-2.62,11.33-5.65,17.21-7.89,12.99-4.96,26.13-9.53,39.21-14.25.29-.1.6-.13,1.07-.22.22.82.46,1.57.62,2.33,1.76,8.12,3.42,16.27,5.29,24.37,2,8.67,4.7,17.13,9.03,24.96,2.67,4.83,6.75,7.86,12.3,8.6,4.27.57,8.25-.58,12.03-2.51,5.3-2.71,9.51-6.68,13.18-11.32,1.36-1.71,1.73-3.34,1.27-5.5-3.67-17.36-7.24-34.75-10.83-52.13-.2-.99-.34-1.99-.53-3.09,7.29-2.75,14.37-5.42,21.87-8.25Zm243.22,332.67c0,.78.03,1.46,0,2.14-.18,3.51-.38,7.03-.56,10.54-.22,4.27,1.27,7.89,4.49,10.66,1.56,1.34,3.34,2.53,5.2,3.37,5.57,2.51,11.37,3.16,17.3,1.33,10.46-3.23,20.95-6.38,31.36-9.78,20.06-6.56,40.17-12.97,60.75-17.76,8.8-2.05,17.64-3.92,26.42-6.02,6.7-1.6,13.2-3.83,19.41-6.87.93-.46,1.83-.88,2.28-1.97,1.35-3.28,2.38-6.62,2.52-10.19.28-7.44-3.68-12.94-10.84-15.06-3.59-1.06-7.25-1.2-10.93-.67-2.21.32-4.39.88-6.6,1.22-14.31,2.2-28.47,5.16-42.51,8.69-16.29,4.1-32.37,8.89-48.33,14.12-1.1.36-2.21.68-3.52,1.09,0-.93-.04-1.48,0-2.02.31-3.26.62-6.53.97-9.79,2.45-22.75,6.11-45.33,10.79-67.71,5.53-26.45,11.43-52.81,17.15-79.22,2.44-11.25,4.85-22.51,7.17-33.78.43-2.09.56-4.3.42-6.42-.16-2.55-1.49-3.74-4.06-3.81-1.82-.05-3.69.11-5.47.52-4.91,1.12-9.84,2.22-14.64,3.69-3.72,1.14-7.41,2.59-10.87,4.36-5.89,3.02-9.7,7.86-11.54,14.32-3.32,11.62-6.01,23.38-8.25,35.25-3.1,16.42-6.13,32.85-9.15,49.28-1.71,9.28-3.27,18.58-5.04,27.85-3.88,20.25-8.31,40.41-11.29,60.83-.06.4-.29.78-.55,1.43-2.75-4.13-6.46-6.41-10.97-7.1-2.74-.42-5.57-.44-8.34-.29-2.29.13-4.56.77-6.84,1.2-11.14,2.14-22.34,4.04-33.42,6.5-19.45,4.32-38.51,10.05-57.44,16.23-1.19.39-2.4.76-3.62,1.14-.15-.46-.3-.69-.28-.91.07-1.36.15-2.71.28-4.07,1.46-15.29,3.75-30.47,6.52-45.57,1.1-5.98,2.33-11.93,3.4-17.91.27-1.49.93-2.23,2.4-2.46,1.5-.24,2.96-.69,4.44-.99,13.4-2.72,26.8-5.41,40.19-8.16,5.01-1.03,9.96-2.36,15-3.21,7.52-1.27,11.81-5.98,11.84-13.59.02-5.97-2.18-11.22-5.34-16.16-.84-1.31-1.81-1.83-3.35-1.68-6.76.63-13.57.9-20.29,1.83-11.16,1.54-22.27,3.48-33.41,5.23-1.15.18-2.33.25-3.69.39.11-.89.17-1.5.26-2.11.84-5.21,1.74-10.41,2.51-15.63,1.36-9.19,3.2-18.26,5.98-27.14.54-1.73,1.4-2.34,3.13-2.59,9.89-1.44,19.77-2.91,29.63-4.56,13.8-2.32,27.48-5.28,40.96-9.07,6.31-1.77,12.57-3.72,18.84-5.61,4.15-1.25,6.89-4.02,8.13-8.12,1.89-6.24.75-12.04-3.07-17.27-2.39-3.27-5.7-5.09-9.77-5.35-1.27-.08-2.56.05-3.83.12-13.21.76-26.21,2.95-39.11,5.79-13.5,2.98-26.99,6.06-40.47,9.14-7.87,1.8-15.74,3.59-23.57,5.54-3.96.99-7.73,2.58-11.24,4.71-5.21,3.17-8.91,7.54-10.42,13.51-1.95,7.67-4.12,15.3-5.53,23.07-3.25,17.93-5.93,35.96-9.16,53.9-3.55,19.75-7.49,39.42-11.21,59.14-3.54,18.79-6.33,37.68-7.09,56.83-.25,6.33,2.32,10.84,7.62,13.86,5.95,3.38,12.34,4.42,18.97,2.44,9.65-2.87,19.32-5.74,28.87-8.92,26.72-8.9,53.64-17.02,81.27-22.62,9.73-1.97,19.28-4.62,28.28-8.97.19-.09.44-.07.88-.14Zm-356.94-158.07c2.78-.42,5.38-.8,7.98-1.22,24.23-3.91,48.47-7.73,72.69-11.75,23.34-3.87,46.68-7.82,69.98-11.96,28.26-5.02,56.49-10.17,84.7-15.46,15.95-2.99,31.88-6.08,47.52-10.52,2.99-.85,5.63-2.24,8-4.19,3.43-2.82,6.18-6.25,8.55-9.98,4.2-6.59,7.48-13.59,8.98-21.31.27-1.39.32-2.87.21-4.28-.11-1.41-.65-1.78-2.07-1.71-1.76.09-3.52.2-5.26.44-17.02,2.37-34.07,4.58-51.06,7.2-24.41,3.76-48.79,7.77-73.17,11.78-22.4,3.69-44.79,7.47-67.17,11.29-26.4,4.51-52.79,9.05-79.16,13.72-13.38,2.37-26.84,4.31-40.05,7.59-5.51,1.37-11.02,2.74-16.17,5.23-7.02,3.39-11.81,8.58-13.69,16.31-2.34,9.63-5.08,19.17-7.12,28.86-4.35,20.65-8.43,41.36-12.5,62.07-1.85,9.41-3.36,18.89-5.07,28.33-3.83,21.16-7.82,42.29-11.48,63.48-2.66,15.37-4.4,30.86-5.08,46.47-.26,6.12,2.28,10.53,7.37,13.52,5.99,3.52,12.44,4.49,19.18,2.63,4.62-1.27,9.18-2.79,13.8-4.07,1.54-.43,2.18-1.15,2.35-2.77,1.46-13.59,2.89-27.19,4.57-40.76,1.91-15.47,3.88-30.94,6.16-46.36,1.6-10.83,3.77-21.57,5.63-32.37.26-1.54.84-2.38,2.48-2.67,3.22-.58,6.4-1.43,9.61-2.09,13.31-2.72,26.64-5.41,39.95-8.12,3.44-.7,6.86-1.56,10.32-2.15,7.26-1.24,11.46-5.99,11.55-13.36.08-6.15-2.2-11.54-5.52-16.58-.75-1.14-1.6-1.6-2.96-1.49-5.02.42-10.08.49-15.06,1.18-11.56,1.61-23.08,3.51-34.61,5.28-2.57.4-5.15.76-8.1,1.19,3.99-20.82,7.28-41.32,13.74-61.41Zm-146.41-70.14c-.46-.86-.9-1.61-1.29-2.38-2.1-4.23-4.17-8.46-6.27-12.69-3.24-6.52-6.6-12.97-10.77-18.96-4.9-7.04-10.73-13.09-18.26-17.39-1.8-1.03-3.65-1.52-5.69-1.58-10.55-.32-20.98,6.75-24.66,16.67-.64,1.74-.7,3.35-.14,5.13,1.52,4.79,4.01,9.07,6.85,13.14,4.83,6.92,8.63,14.39,12.03,22.08,1.88,4.24,3.75,8.48,5.76,12.66,2.37,4.92,5.2,9.56,9.02,13.51,4.71,4.87,10.32,7.91,17.13,8.85,9.07,1.25,17.9.27,26.47-2.74,15.9-5.6,29.99-14.25,42.25-25.84,5.42-5.12,10.32-10.71,14.76-16.7,9.3-12.54,16.35-26.15,19.61-41.54,3.03-14.3,2.15-28.31-3.5-41.88-.57-1.36-1.47-2.66-2.5-3.73-5.34-5.52-11.84-9.29-19.1-11.57-6.01-1.89-12.17-3.36-18.31-4.78-7.55-1.74-15.2-3.11-22.5-5.82-6.09-2.26-6.29-2.48-7.29-8.86-1.24-7.91-.36-15.64,2.28-23.16,3.5-9.98,7.85-19.59,12.77-28.94,8.19-15.58,18.09-29.97,30.18-42.8.62-.66,1.3-1.27,2.24-2.19,0,1.63.06,2.74,0,3.83-.59,8.86-1.16,17.71-1.84,26.56-.17,2.22-.63,4.42-1.1,6.61-.6,2.81-1.39,5.59-2.02,8.39-1.56,6.97-2.44,13.99-2.11,21.17.34,7.29,3.66,12.76,9.39,16.98.64.47,1.3.93,1.99,1.34,6.4,3.85,13.43,5.44,20.82,5.71.22,0,.45-.13.73-.22.17-.43.37-.86.5-1.31,4.65-15.3,9.34-30.59,12.94-46.18,3.56-15.47,6.06-31.08,5.98-47.01-.08-14.37-6-25.97-17.64-34.22-12.48-8.84-25.87-9.94-39.59-2.7-12.31,6.5-22.89,15.25-32.11,25.59-17.15,19.25-30.88,40.74-41.3,64.33-4.75,10.77-8.96,21.73-11.23,33.34-2.06,10.5-2.44,20.99.74,31.33,3.93,12.8,11.17,23.1,23.14,29.66,5.72,3.13,11.79,5.42,18.14,6.78,7.81,1.67,15.7,3,23.56,4.45,3.52.65,7.06,1.23,10.78,1.87,0,.98.03,1.76,0,2.54-.43,9.56-2.72,18.65-6.97,27.22-7.36,14.83-18.6,26.05-32.49,34.79-.39.25-.84.41-1.39.68Zm554.57-182.71c-.23-1.17-.41-1.94-.53-2.72-3.45-21.89-5.43-43.95-7.69-65.98-.96-9.38-1.98-18.76-3.03-28.14-.77-6.89-4.1-12.36-9.53-16.58-5.14-4-11.06-5.92-17.49-6.57-3.37-.34-6.13.73-8.56,2.92-.77.69-1.52,1.42-2.22,2.19-3.34,3.66-6.69,7.32-9.98,11.02-.84.95-1.59,2.01-2.24,3.1-19.1,31.96-35.89,65.1-50.47,99.35-15.55,36.54-28.45,74-38.69,112.37-.27,1-.53,2.03-.54,3.05-.01,4.11.6,8.11,2,12,2.31,6.43,6.97,9.98,13.57,11.07,2.86.47,5.73.32,8.58-.32,4.56-1.02,8.41-3.14,10.8-7.29,1.79-3.11,3.67-6.22,4.98-9.54,1.87-4.75,3.25-9.69,4.84-14.55,1.81-5.54,3.64-11.08,5.43-16.63.45-1.4,1.37-2.19,2.72-2.78,5.8-2.51,11.57-5.06,17.32-7.69,14.1-6.46,28.17-12.98,42.26-19.46.69-.32,1.42-.56,2.29-.9.31.99.56,1.73.78,2.48,1.54,5.46,3.05,10.93,4.62,16.39,3.12,10.84,6.62,21.54,11.33,31.82,1.32,2.87,3.23,5.13,5.79,6.87,6.01,4.11,12.69,5.93,19.94,5.73.48-.01.96-.08,1.43-.13,9.9-1.11,16.1-7.36,17.19-17.29.52-4.74.12-9.42-.79-14.07-1.61-8.2-4.68-15.93-7.53-23.74-2.66-7.28-5.13-14.62-7.62-21.96-.51-1.49-.73-3.07-1.11-4.71.85-.39,1.48-.71,2.13-.97,8.75-3.51,17.49-7.06,26.28-10.5,4.3-1.68,7.49-4.67,9.77-8.48,4.39-7.31,7.52-15.17,9.38-23.51.29-1.32.54-2.68.59-4.02.16-4.06-1.71-6.61-5.74-7.28-2.41-.4-4.95-.42-7.39-.16-7.53.8-14.7,3.05-21.6,6.13-5.99,2.67-11.96,5.38-17.94,8.06-1.01.45-2.03.88-3.34,1.44Zm-200.98,231.46c-3.99.21-7.49.35-10.99.6-2.39.17-4.78.4-7.15.78-3.27.51-6.33,1.68-9.08,3.57-1.25.86-2.49,1.74-3.77,2.55-9.12,5.75-15.09,13.84-18.28,24.12-2.52,8.12-4.17,16.42-5.81,24.73-4.58,23.14-8.4,46.42-11.37,69.82-1.78,14.04-3.45,28.09-5.1,42.15-.39,3.36-1.51,6.41-3.62,8.99-1.76,2.15-3.66,4.27-5.82,6.01-7.89,6.37-16.95,10.19-26.99,11.6-3.1.44-6.22.47-9.31-.24-6.19-1.41-9.05-5.36-8.37-11.69.54-5.09,1.13-10.17,1.8-15.25,3.18-24.21,8.06-48.08,13.98-71.76,4.64-18.53,9.04-37.13,13.49-55.7,1.04-4.36,2-8.76,1.76-13.27-.12-2.2-.55-4.44-1.19-6.55-.54-1.8-1.82-3.33-3.79-3.69-6.4-1.17-12.84-1.84-19.3-.42-7.15,1.57-11.72,5.86-13.59,12.99-.97,3.71-2.05,7.39-3,11.11-10.4,40.83-20.08,81.83-28.82,123.05-2.4,11.34-4.62,22.73-6.4,34.17-2.1,13.51,2.61,24.51,13.6,32.74,3.35,2.51,7.03,4.44,10.91,5.97,9.79,3.87,19.97,5.02,30.39,4.19,8.05-.64,16.09-1.42,24.11-2.33,7.48-.86,14.83-2.41,21.99-4.78,13.82-4.59,24.18-13.21,30.54-26.35,2.08-4.3,3.85-8.79,5.35-13.33,3.81-11.51,5.6-23.46,7.16-35.44,2.47-19.03,4.87-38.07,7.31-57.1,2.04-15.86,4.21-31.71,7.49-47.37,3.59-17.13,7.53-34.19,11.32-51.28.17-.76.31-1.52.52-2.56Z"/>
    <path d="m350.21,220.29c-7.51,2.83-14.58,5.5-21.87,8.25.19,1.11.33,2.11.53,3.09,3.59,17.38,7.15,34.76,10.83,52.13.46,2.16.08,3.78-1.27,5.5-3.67,4.64-7.88,8.61-13.18,11.32-3.77,1.93-7.76,3.08-12.03,2.51-5.54-.74-9.62-3.78-12.3-8.6-4.33-7.83-7.03-16.28-9.03-24.96-1.87-8.1-3.53-16.25-5.29-24.37-.17-.76-.4-1.51-.62-2.33-.47.09-.79.12-1.07.22-13.08,4.72-26.22,9.3-39.21,14.25-5.88,2.24-11.47,5.28-17.21,7.89-1.63.74-2.72,1.86-3.4,3.5-1.72,4.13-3.49,8.24-5.24,12.36-1.98,4.63-3.83,9.32-6,13.85-1.2,2.5-2.89,4.78-4.44,7.1-2.8,4.18-6.86,6.34-11.74,7.13-4.76.77-9.41.46-13.88-1.46-6.55-2.82-8.97-8-6.87-14.8,6.63-21.41,14.71-42.28,23.96-62.69,14.66-32.33,31.95-63.22,51.2-93.01,8.94-13.83,18.35-27.36,27.54-41.02.62-.93,1.3-1.83,1.85-2.8,3.45-6.11,8.86-9.3,15.63-10.31,4.68-.7,9.28-.22,13.6,1.84,6.48,3.1,10.31,8.08,10.9,15.43,1.02,12.84,1.26,25.71,1.42,38.59.14,10.95.25,21.91.55,32.86.17,5.99.7,11.97,1.09,17.95.05.79.22,1.57.32,2.29.28.08.44.2.56.16,4.62-1.55,9.25-3.05,13.83-4.71,3.22-1.17,6.49-2.32,9.5-3.92,4.04-2.14,6.43-5.64,6.98-10.3.18-1.5.52-2.99.81-4.48,3.35-17.14,7.82-33.96,14.04-50.29,7.69-20.16,17.73-38.99,31.67-55.59,6.45-7.68,13.43-14.82,21.48-20.83,9.16-6.84,19.27-11.63,30.64-13.53,13.3-2.23,25.23.94,35.83,9.18,4.53,3.52,7.45,8.26,9.87,13.39,4.11,8.71,5.21,17.91,4.57,27.38-.35,5.18-.73,10.38-1.48,15.51-1.28,8.75-3.99,17.13-7.81,25.09-2.31,4.82-5.02,9.46-7.57,14.16-.37.69-.88,1.3-1.41,2.08-1.59-.82-3.07-1.57-4.54-2.35-3.31-1.77-6.69-3.44-9.89-5.39-2.17-1.32-4.22-2.91-6.08-4.65-4.09-3.83-5.9-8.63-5.48-14.26.52-6.86,1-13.72,1.46-20.58.47-7.13.14-14.23-1.18-21.26-.22-1.16-.53-2.3-.91-3.89-1.09.82-1.91,1.39-2.68,2.01-11.13,9-20.19,19.78-27.56,32.01-9.08,15.07-15.21,31.34-19.13,48.43-3.33,14.49-6.45,29.03-9.41,43.6-2.55,12.55-4.19,25.24-4.45,38.07-.3,15.18,1.63,29.99,7.13,44.23.31.81.67,1.6,1.16,2.74,9.65-7.52,17.72-16.16,24.55-25.99,7.57-10.9,13.25-22.69,17.14-35.73-1.22-.08-2.07-.12-2.92-.19-4.62-.37-9.24-.73-13.86-1.12-4.25-.36-7.51-2.49-10.14-5.74-2.8-3.46-4.68-7.42-6.26-11.55-.45-1.18.01-1.96.68-2.82,3.06-3.91,6.85-6.91,11.26-9.16,5.24-2.68,10.84-4.33,16.56-5.53,14.63-3.06,29.27-6.08,43.94-8.99,4.15-.82,8.38-1.2,12.58-1.78,2.37-.33,4.19.6,5.69,2.37,3.07,3.62,5.15,7.73,5.95,12.39.29,1.7.33,3.57-.07,5.22-1.51,6.21-3.22,12.38-4.91,18.54-.38,1.38-1,2.7-1.47,4.05-.53,1.53-1.57,2.28-3.19,2.44-3.58.36-7.15.81-10.73,1.2-2.23.24-2.24.22-2.77,2.46-3.8,16.05-9.59,31.32-17.97,45.57-8.83,15-19.87,28.08-34.07,38.23-14.07,10.06-29.74,13.43-46.68,9.59-10.93-2.48-19.49-8.55-25.43-18.2-4.94-8.02-7.83-16.77-9.55-25.96-1.46-7.8-2.04-15.69-2.37-23.61-.23-5.51-.36-11.03-.53-16.54-.03-.79-.08-1.58-.14-2.92Zm-72.6-56.45c-.21-.03-.43-.06-.64-.09-10.73,18.91-21.63,37.74-30.16,57.92,12.08-4.16,23.88-8.72,35.81-13.46-1.68-14.9-3.34-29.63-5.01-44.37Z"/>
    <path d="m593.43,552.96c-.43.06-.68.04-.88.14-8.99,4.36-18.55,7-28.28,8.97-27.63,5.61-54.55,13.73-81.27,22.62-9.55,3.18-19.22,6.04-28.87,8.92-6.63,1.97-13.02.94-18.97-2.44-5.31-3.02-7.87-7.53-7.62-13.86.76-19.15,3.55-38.04,7.09-56.83,3.71-19.72,7.65-39.39,11.21-59.14,3.23-17.93,5.91-35.97,9.16-53.9,1.41-7.77,3.58-15.41,5.53-23.07,1.52-5.97,5.22-10.34,10.42-13.51,3.51-2.14,7.28-3.73,11.24-4.71,7.83-1.95,15.7-3.75,23.57-5.54,13.48-3.08,26.96-6.16,40.47-9.14,12.9-2.84,25.9-5.03,39.11-5.79,1.28-.07,2.56-.2,3.83-.12,4.07.26,7.38,2.08,9.77,5.35,3.82,5.23,4.96,11.03,3.07,17.27-1.24,4.1-3.98,6.87-8.13,8.12-6.27,1.89-12.54,3.83-18.84,5.61-13.48,3.79-27.15,6.75-40.96,9.07-9.85,1.66-19.74,3.12-29.63,4.56-1.73.25-2.59.86-3.13,2.59-2.78,8.88-4.63,17.95-5.98,27.14-.77,5.22-1.67,10.42-2.51,15.63-.1.61-.15,1.22-.26,2.11,1.36-.14,2.53-.21,3.69-.39,11.13-1.75,22.24-3.69,33.41-5.23,6.72-.92,13.53-1.2,20.29-1.83,1.54-.14,2.52.37,3.35,1.68,3.16,4.94,5.37,10.19,5.34,16.16-.03,7.6-4.32,12.32-11.84,13.59-5.04.85-9.99,2.18-15,3.21-13.39,2.74-26.79,5.43-40.19,8.16-1.49.3-2.95.75-4.44.99-1.47.24-2.13.98-2.4,2.46-1.07,5.98-2.31,11.93-3.4,17.91-2.77,15.1-5.06,30.28-6.52,45.57-.13,1.35-.21,2.71-.28,4.07-.01.22.13.44.28.91,1.23-.39,2.43-.76,3.62-1.14,18.93-6.18,38-11.91,57.44-16.23,11.07-2.46,22.27-4.36,33.42-6.5,2.27-.44,4.54-1.07,6.84-1.2,2.77-.16,5.61-.13,8.34.29,4.52.69,8.22,2.98,10.97,7.1.26-.65.49-1.03.55-1.43,2.98-20.42,7.41-40.57,11.29-60.83,1.78-9.26,3.33-18.57,5.04-27.85,3.03-16.43,6.05-32.86,9.15-49.28,2.24-11.87,4.93-23.63,8.25-35.25,1.84-6.45,5.65-11.3,11.54-14.32,3.46-1.78,7.15-3.22,10.87-4.36,4.81-1.48,9.74-2.58,14.64-3.69,1.77-.4,3.65-.57,5.47-.52,2.57.07,3.9,1.26,4.06,3.81.13,2.13,0,4.34-.42,6.42-2.32,11.28-4.73,22.53-7.17,33.78-5.72,26.41-11.62,52.77-17.15,79.22-4.68,22.39-8.34,44.96-10.79,67.71-.35,3.26-.66,6.52-.97,9.79-.05.54,0,1.09,0,2.02,1.31-.4,2.42-.73,3.52-1.09,15.96-5.23,32.04-10.02,48.33-14.12,14.04-3.53,28.2-6.49,42.51-8.69,2.21-.34,4.39-.91,6.6-1.22,3.68-.53,7.34-.39,10.93.67,7.16,2.12,11.12,7.61,10.84,15.06-.13,3.57-1.17,6.91-2.52,10.19-.45,1.09-1.35,1.51-2.28,1.97-6.2,3.05-12.71,5.27-19.41,6.87-8.78,2.1-17.62,3.97-26.42,6.02-20.58,4.79-40.68,11.2-60.75,17.76-10.41,3.4-20.9,6.55-31.36,9.78-5.93,1.83-11.73,1.19-17.3-1.33-1.87-.84-3.64-2.03-5.2-3.37-3.22-2.76-4.7-6.39-4.49-10.66.18-3.51.38-7.03.56-10.54.03-.68,0-1.37,0-2.14Z"/>
    <path d="m236.49,394.89c-6.46,20.09-9.75,40.59-13.74,61.41,2.95-.43,5.53-.8,8.1-1.19,11.54-1.77,23.05-3.67,34.61-5.28,4.98-.69,10.04-.77,15.06-1.18,1.36-.11,2.21.35,2.96,1.49,3.31,5.05,5.6,10.43,5.52,16.58-.09,7.38-4.29,12.12-11.55,13.36-3.46.59-6.87,1.45-10.32,2.15-13.32,2.71-26.64,5.4-39.95,8.12-3.21.66-6.38,1.5-9.61,2.09-1.64.3-2.22,1.14-2.48,2.67-1.86,10.79-4.03,21.54-5.63,32.37-2.28,15.42-4.25,30.89-6.16,46.36-1.67,13.57-3.11,27.16-4.57,40.76-.17,1.62-.81,2.35-2.35,2.77-4.62,1.28-9.18,2.79-13.8,4.07-6.74,1.86-13.2.89-19.18-2.63-5.09-2.99-7.63-7.4-7.37-13.52.67-15.61,2.42-31.1,5.08-46.47,3.66-21.19,7.65-42.32,11.48-63.48,1.71-9.44,3.23-18.92,5.07-28.33,4.06-20.71,8.14-41.42,12.5-62.07,2.04-9.69,4.78-19.23,7.12-28.86,1.88-7.72,6.67-12.92,13.69-16.31,5.15-2.49,10.66-3.86,16.17-5.23,13.21-3.28,26.67-5.22,40.05-7.59,26.37-4.67,52.77-9.21,79.16-13.72,22.38-3.83,44.77-7.61,67.17-11.29,24.38-4.01,48.75-8.02,73.17-11.78,16.99-2.62,34.03-4.83,51.06-7.2,1.74-.24,3.5-.35,5.26-.44,1.42-.07,1.97.3,2.07,1.71.11,1.42.06,2.89-.21,4.28-1.5,7.72-4.78,14.72-8.98,21.31-2.37,3.73-5.12,7.16-8.55,9.98-2.37,1.95-5.01,3.34-8,4.19-15.63,4.44-31.57,7.53-47.52,10.52-28.21,5.28-56.44,10.44-84.7,15.46-23.3,4.14-46.63,8.08-69.98,11.96-24.21,4.02-48.46,7.85-72.69,11.75-2.6.42-5.2.8-7.98,1.22Z"/>
    <path d="m90.07,324.75c.56-.27,1-.43,1.39-.68,13.89-8.74,25.13-19.96,32.49-34.79,4.26-8.57,6.55-17.66,6.97-27.22.03-.78,0-1.57,0-2.54-3.72-.64-7.26-1.22-10.78-1.87-7.86-1.45-15.75-2.77-23.56-4.45-6.35-1.36-12.42-3.65-18.14-6.78-11.97-6.56-19.22-16.86-23.14-29.66-3.17-10.35-2.79-20.84-.74-31.33,2.28-11.61,6.48-22.57,11.23-33.34,10.41-23.59,24.15-45.08,41.3-64.33,9.21-10.34,19.8-19.09,32.11-25.59,13.72-7.24,27.11-6.14,39.59,2.7,11.64,8.25,17.56,19.84,17.64,34.22.09,15.93-2.41,31.55-5.98,47.01-3.59,15.59-8.29,30.88-12.94,46.18-.14.45-.34.89-.5,1.31-.28.09-.51.22-.73.22-7.38-.27-14.41-1.86-20.82-5.71-.68-.41-1.35-.87-1.99-1.34-5.73-4.22-9.05-9.69-9.39-16.98-.33-7.19.55-14.2,2.11-21.17.63-2.81,1.41-5.58,2.02-8.39.47-2.18.93-4.39,1.1-6.61.68-8.85,1.25-17.71,1.84-26.56.07-1.1,0-2.2,0-3.83-.94.92-1.61,1.53-2.24,2.19-12.09,12.84-21.99,27.22-30.18,42.8-4.92,9.35-9.27,18.97-12.77,28.94-2.64,7.52-3.52,15.24-2.28,23.16,1,6.38,1.2,6.6,7.29,8.86,7.3,2.71,14.95,4.08,22.5,5.82,6.15,1.42,12.3,2.9,18.31,4.78,7.26,2.28,13.76,6.05,19.1,11.57,1.03,1.06,1.93,2.37,2.5,3.73,5.65,13.57,6.54,27.58,3.5,41.88-3.26,15.39-10.31,29-19.61,41.54-4.44,5.99-9.35,11.58-14.76,16.7-12.26,11.59-26.34,20.24-42.25,25.84-8.56,3.01-17.39,4-26.47,2.74-6.8-.94-12.41-3.98-17.13-8.85-3.83-3.95-6.66-8.59-9.02-13.51-2.01-4.18-3.88-8.42-5.76-12.66-3.4-7.69-7.2-15.15-12.03-22.08-2.84-4.07-5.34-8.35-6.85-13.14-.56-1.77-.51-3.39.14-5.13,3.68-9.92,14.1-16.98,24.66-16.67,2.04.06,3.9.55,5.69,1.58,7.52,4.3,13.36,10.35,18.26,17.39,4.17,5.99,7.53,12.44,10.77,18.96,2.1,4.23,4.17,8.46,6.27,12.69.39.78.82,1.53,1.29,2.38Z"/>
    <path d="m644.64,142.04c1.3-.56,2.33-.98,3.34-1.44,5.98-2.68,11.95-5.39,17.94-8.06,6.91-3.07,14.07-5.32,21.6-6.13,2.43-.26,4.98-.23,7.39.16,4.03.66,5.91,3.21,5.74,7.28-.05,1.35-.3,2.7-.59,4.02-1.86,8.34-4.99,16.21-9.38,23.51-2.29,3.81-5.47,6.8-9.77,8.48-8.78,3.44-17.52,6.99-26.28,10.5-.65.26-1.28.58-2.13.97.38,1.63.6,3.22,1.11,4.71,2.49,7.34,4.97,14.68,7.62,21.96,2.85,7.81,5.92,15.54,7.53,23.74.91,4.65,1.32,9.33.79,14.07-1.1,9.93-7.29,16.18-17.19,17.29-.48.05-.95.12-1.43.13-7.25.21-13.93-1.62-19.94-5.73-2.55-1.75-4.47-4-5.79-6.87-4.71-10.28-8.21-20.98-11.33-31.82-1.57-5.45-3.07-10.93-4.62-16.39-.21-.76-.47-1.5-.78-2.48-.87.34-1.6.58-2.29.9-14.09,6.49-28.16,13-42.26,19.46-5.74,2.63-11.52,5.18-17.32,7.69-1.35.58-2.26,1.37-2.72,2.78-1.79,5.55-3.62,11.09-5.43,16.63-1.59,4.86-2.97,9.8-4.84,14.55-1.31,3.32-3.19,6.43-4.98,9.54-2.39,4.15-6.23,6.27-10.8,7.29-2.85.64-5.72.79-8.58.32-6.61-1.09-11.26-4.65-13.57-11.07-1.4-3.89-2.02-7.89-2-12,0-1.02.27-2.06.54-3.05,10.24-38.37,23.14-75.83,38.69-112.37,14.58-34.26,31.37-67.4,50.47-99.35.65-1.09,1.4-2.15,2.24-3.1,3.3-3.7,6.64-7.36,9.98-11.02.7-.77,1.45-1.5,2.22-2.19,2.43-2.18,5.19-3.26,8.56-2.92,6.43.65,12.35,2.57,17.49,6.57,5.43,4.22,8.76,9.69,9.53,16.58,1.05,9.38,2.06,18.75,3.03,28.14,2.26,22.03,4.24,44.09,7.69,65.98.12.78.3,1.55.53,2.72Zm-54.18-29.77c-.45.25-.65.29-.71.4-1.41,2.95-2.91,5.87-4.2,8.87-8.62,20.02-17.2,40.06-25.79,60.1-.02.06.02.15.05.22.04.07.1.12.27.32,13.08-6.51,26.21-13.04,39.33-19.57-3.02-16.96-5.97-33.6-8.95-50.34Z"/>
    <path d="m443.66,373.5c-.21,1.05-.35,1.81-.52,2.56-3.79,17.09-7.73,34.15-11.32,51.28-3.28,15.66-5.45,31.51-7.49,47.37-2.45,19.03-4.84,38.07-7.31,57.1-1.56,11.98-3.35,23.93-7.16,35.44-1.5,4.54-3.27,9.03-5.35,13.33-6.36,13.14-16.73,21.77-30.54,26.35-7.16,2.38-14.51,3.93-21.99,4.78-8.02.92-16.06,1.69-24.11,2.33-10.42.83-20.6-.32-30.39-4.19-3.88-1.54-7.56-3.46-10.91-5.97-10.98-8.23-15.7-19.23-13.6-32.74,1.78-11.45,3.99-22.84,6.4-34.17,8.74-41.22,18.42-82.22,28.82-123.05.95-3.72,2.03-7.4,3-11.11,1.87-7.13,6.43-11.42,13.59-12.99,6.46-1.42,12.9-.75,19.3.42,1.97.36,3.25,1.9,3.79,3.69.64,2.12,1.07,4.35,1.19,6.55.24,4.51-.72,8.92-1.76,13.27-4.46,18.58-8.86,37.17-13.49,55.7-5.92,23.68-10.8,47.55-13.98,71.76-.67,5.07-1.26,10.16-1.8,15.25-.68,6.34,2.18,10.28,8.37,11.69,3.08.7,6.21.68,9.31.24,10.04-1.41,19.1-5.23,26.99-11.6,2.16-1.74,4.06-3.86,5.82-6.01,2.11-2.58,3.23-5.63,3.62-8.99,1.65-14.06,3.31-28.11,5.1-42.15,2.97-23.4,6.79-46.68,11.37-69.82,1.65-8.31,3.3-16.62,5.81-24.73,3.19-10.28,9.16-18.37,18.28-24.12,1.28-.81,2.52-1.69,3.77-2.55,2.75-1.89,5.81-3.05,9.08-3.57,2.37-.37,4.76-.61,7.15-.78,3.5-.25,7.01-.39,10.99-.6Z"/>
    <path class="cls-1" d="m277.61,163.84c1.66,14.74,3.33,29.47,5.01,44.37-11.93,4.75-23.73,9.31-35.81,13.46,8.53-20.18,19.43-39.01,30.16-57.92.21.03.43.06.64.09Z"/>
    <path class="cls-1" d="m590.46,112.27c2.98,16.74,5.94,33.38,8.95,50.34-13.12,6.53-26.25,13.06-39.33,19.57-.17-.19-.23-.25-.27-.32-.03-.06-.08-.16-.05-.22,8.59-20.04,17.17-40.08,25.79-60.1,1.29-3,2.79-5.92,4.2-8.87.05-.11.26-.15.71-.4Z"/>
  </g>
</svg>